<?xml version="1.0" ?>
<svg height="41.0mm" version="1.1" viewBox="61.36 -217.2 64.54 41.0" width="64.54mm" xmlns="http://www.w3.org/2000/svg" xmlns:xlink="http://www.w3.org/1999/xlink">
	<g transform="scale(1,-1)">
		<g>
			<path d="M 121.9,-176.2 L 121.9,-176.2 L 121.9,-174.2 L 121.9,-174.2 L 121.9,-174.2 L 125.9,-174.2 L 125.9,-174.2 L 125.9,-174.2 L 125.9,-176.2 L 125.9,-176.2 L 125.9,-176.2 L 121.9,-176.2 L 121.9,-176.2 z" fill="#66cc99" fill-rule="evenodd" opacity="0.6" stroke="#555555" stroke-width="0.1"/>
			<path d="M 86.75089,-174.49827 L 86.75089,-174.49827 L 86.75089,-173.39845 L 86.75089,-173.39845 L 86.7508900002,-173.39845 L 87.7491099998,-173.39845 L 87.74911,-173.39845 L 87.74911,-173.39845 L 87.74911,-174.49827 L 87.74911,-174.49827 L 87.7491099998,-174.49827 L 86.7508900002,-174.49827 L 86.75089,-174.49827 z" fill="#66cc99" fill-rule="evenodd" opacity="0.6" stroke="#555555" stroke-width="0.1"/>
			<path d="M 108.40173,-175.69911 L 108.40173,-175.69911 L 108.40173,-174.70089 L 108.40173,-174.70089 L 108.40173,-174.70089 L 109.50155,-174.70089 L 109.50155,-174.70089 L 109.50155,-174.70089 L 109.50155,-175.69911 L 109.50155,-175.69911 L 109.50155,-175.69911 L 108.40173,-175.69911 L 108.40173,-175.69911 z" fill="#66cc99" fill-rule="evenodd" opacity="0.6" stroke="#555555" stroke-width="0.1"/>
			<path d="M 111.80117,-176.09916 L 111.80117,-176.09916 L 111.80117,-174.30084 L 111.80117,-174.30084 L 111.80117,-174.30084 L 113.39883,-174.30084 L 113.39883,-174.30084 L 113.39883,-174.30084 L 113.39883,-176.09916 L 113.39883,-176.09916 L 113.39883,-176.09916 L 111.80117,-176.09916 L 111.80117,-176.09916 z" fill="#66cc99" fill-rule="evenodd" opacity="0.6" stroke="#555555" stroke-width="0.1"/>
			<path d="M 110.09845,-175.69911 L 110.09845,-175.69911 L 110.09845,-174.70089 L 110.09845,-174.70089 L 110.09845,-174.70089 L 111.19827,-174.70089 L 111.19827,-174.70089 L 111.19827,-174.70089 L 111.19827,-175.69911 L 111.19827,-175.69911 L 111.19827,-175.69911 L 110.09845,-175.69911 L 110.09845,-175.69911 z" fill="#66cc99" fill-rule="evenodd" opacity="0.6" stroke="#555555" stroke-width="0.1"/>
			<path d="M 119.60071,-176.09916 L 119.60071,-176.09916 L 119.60071,-174.30084 L 119.60071,-174.30084 L 119.60071,-174.30084 L 121.19837,-174.30084 L 121.19837,-174.30084 L 121.19837,-174.30084 L 121.19837,-176.09916 L 121.19837,-176.09916 L 121.19837,-176.09916 L 119.60071,-176.09916 L 119.60071,-176.09916 z" fill="#66cc99" fill-rule="evenodd" opacity="0.6" stroke="#555555" stroke-width="0.1"/>
			<path d="M 116.80163,-176.09916 L 116.80163,-176.09916 L 116.80163,-174.30084 L 116.80163,-174.30084 L 116.80163,-174.30084 L 118.39929,-174.30084 L 118.39929,-174.30084 L 118.39929,-174.30084 L 118.39929,-176.09916 L 118.39929,-176.09916 L 118.39929,-176.09916 L 116.80163,-176.09916 L 116.80163,-176.09916 z" fill="#66cc99" fill-rule="evenodd" opacity="0.6" stroke="#555555" stroke-width="0.1"/>
			<path d="M 114.60025,-176.09916 L 114.60025,-176.09916 L 114.60025,-174.30084 L 114.60025,-174.30084 L 114.60025,-174.30084 L 116.19791,-174.30084 L 116.19791,-174.30084 L 116.19791,-174.30084 L 116.19791,-176.09916 L 116.19791,-176.09916 L 116.19791,-176.09916 L 114.60025,-176.09916 L 114.60025,-176.09916 z" fill="#66cc99" fill-rule="evenodd" opacity="0.6" stroke="#555555" stroke-width="0.1"/>
			<path d="M 90.67,-172.825 L 90.67,-172.825 L 90.67,-172.175 L 90.67,-172.175 L 90.6700000002,-172.175 L 91.7299999998,-172.175 L 91.73,-172.175 L 91.73,-172.175 L 91.73,-172.825 L 91.73,-172.825 L 91.7299999998,-172.825 L 90.6700000002,-172.825 L 90.67,-172.825 z" fill="#66cc99" fill-rule="evenodd" opacity="0.6" stroke="#555555" stroke-width="0.1"/>
			<path d="M 88.47,-172.825 L 88.47,-172.825 L 88.47,-172.175 L 88.47,-172.175 L 88.4700000002,-172.175 L 89.5299999998,-172.175 L 89.53,-172.175 L 89.53,-172.175 L 89.53,-172.825 L 89.53,-172.825 L 89.5299999998,-172.825 L 88.4700000002,-172.825 L 88.47,-172.825 z" fill="#66cc99" fill-rule="evenodd" opacity="0.6" stroke="#555555" stroke-width="0.1"/>
			<path d="M 86.75089,-172.80155 L 86.75089,-172.80155 L 86.75089,-171.70173 L 86.75089,-171.70173 L 86.7508900002,-171.70173 L 87.7491099998,-171.70173 L 87.74911,-171.70173 L 87.74911,-171.70173 L 87.74911,-172.80155 L 87.74911,-172.80155 L 87.7491099998,-172.80155 L 86.7508900002,-172.80155 L 86.75089,-172.80155 z" fill="#66cc99" fill-rule="evenodd" opacity="0.6" stroke="#555555" stroke-width="0.1"/>
			<path d="M 85.25089,-169.50319 L 85.25089,-169.50319 L 85.25089,-168.40337 L 85.25089,-168.40337 L 85.2508900002,-168.40337 L 86.2491099998,-168.40337 L 86.24911,-168.40337 L 86.24911,-168.40337 L 86.24911,-169.50319 L 86.24911,-169.50319 L 86.2491099998,-169.50319 L 85.2508900002,-169.50319 L 85.25089,-169.50319 z" fill="#66cc99" fill-rule="evenodd" opacity="0.6" stroke="#555555" stroke-width="0.1"/>
			<path d="M 86.75089,-169.50155 L 86.75089,-169.50155 L 86.75089,-168.40173 L 86.75089,-168.40173 L 86.7508900002,-168.40173 L 87.7491099998,-168.40173 L 87.74911,-168.40173 L 87.74911,-168.40173 L 87.74911,-169.50155 L 87.74911,-169.50155 L 87.7491099998,-169.50155 L 86.7508900002,-169.50155 L 86.75089,-169.50155 z" fill="#66cc99" fill-rule="evenodd" opacity="0.6" stroke="#555555" stroke-width="0.1"/>
			<path d="M 92.60089,-172.49827 L 92.60089,-172.49827 L 92.60089,-171.39845 L 92.60089,-171.39845 L 92.6008900002,-171.39845 L 93.5991099998,-171.39845 L 93.59911,-171.39845 L 93.59911,-171.39845 L 93.59911,-172.49827 L 93.59911,-172.49827 L 93.5991099998,-172.49827 L 92.6008900002,-172.49827 L 92.60089,-172.49827 z" fill="#66cc99" fill-rule="evenodd" opacity="0.6" stroke="#555555" stroke-width="0.1"/>
			<path d="M 85.25089,-171.19991 L 85.25089,-171.19991 L 85.25089,-170.10009 L 85.25089,-170.10009 L 85.2508900002,-170.10009 L 86.2491099998,-170.10009 L 86.24911,-170.10009 L 86.24911,-170.10009 L 86.24911,-171.19991 L 86.24911,-171.19991 L 86.2491099998,-171.19991 L 85.2508900002,-171.19991 L 85.25089,-171.19991 z" fill="#66cc99" fill-rule="evenodd" opacity="0.6" stroke="#555555" stroke-width="0.1"/>
			<path d="M 86.75089,-171.19827 L 86.75089,-171.19827 L 86.75089,-170.09845 L 86.75089,-170.09845 L 86.7508900002,-170.09845 L 87.7491099998,-170.09845 L 87.74911,-170.09845 L 87.74911,-170.09845 L 87.74911,-171.19827 L 87.74911,-171.19827 L 87.7491099998,-171.19827 L 86.7508900002,-171.19827 L 86.75089,-171.19827 z" fill="#66cc99" fill-rule="evenodd" opacity="0.6" stroke="#555555" stroke-width="0.1"/>
			<path d="M 88.47,-171.875 L 88.47,-171.875 L 88.47,-171.225 L 88.47,-171.225 L 88.4700000002,-171.225 L 89.5299999998,-171.225 L 89.53,-171.225 L 89.53,-171.225 L 89.53,-171.875 L 89.53,-171.875 L 89.5299999998,-171.875 L 88.4700000002,-171.875 L 88.47,-171.875 z" fill="#66cc99" fill-rule="evenodd" opacity="0.6" stroke="#555555" stroke-width="0.1"/>
			<path d="M 90.67,-171.875 L 90.67,-171.875 L 90.67,-171.225 L 90.67,-171.225 L 90.6700000002,-171.225 L 91.7299999998,-171.225 L 91.73,-171.225 L 91.73,-171.225 L 91.73,-171.875 L 91.73,-171.875 L 91.7299999998,-171.875 L 90.6700000002,-171.875 L 90.67,-171.875 z" fill="#66cc99" fill-rule="evenodd" opacity="0.6" stroke="#555555" stroke-width="0.1"/>
			<path d="M 121.9,-171.2 L 121.9,-171.2 L 121.9,-169.2 L 121.9,-169.2 L 121.9,-169.2 L 125.9,-169.2 L 125.9,-169.2 L 125.9,-169.2 L 125.9,-171.2 L 125.9,-171.2 L 125.9,-171.2 L 121.9,-171.2 L 121.9,-171.2 z" fill="#66cc99" fill-rule="evenodd" opacity="0.6" stroke="#555555" stroke-width="0.1"/>
			<path d="M 119.60071,-171.09916 L 119.60071,-171.09916 L 119.60071,-169.30084 L 119.60071,-169.30084 L 119.60071,-169.30084 L 121.19837,-169.30084 L 121.19837,-169.30084 L 121.19837,-169.30084 L 121.19837,-171.09916 L 121.19837,-171.09916 L 121.19837,-171.09916 L 119.60071,-171.09916 L 119.60071,-171.09916 z" fill="#66cc99" fill-rule="evenodd" opacity="0.6" stroke="#555555" stroke-width="0.1"/>
			<path d="M 116.80163,-171.09916 L 116.80163,-171.09916 L 116.80163,-169.30084 L 116.80163,-169.30084 L 116.80163,-169.30084 L 118.39929,-169.30084 L 118.39929,-169.30084 L 118.39929,-169.30084 L 118.39929,-171.09916 L 118.39929,-171.09916 L 118.39929,-171.09916 L 116.80163,-171.09916 L 116.80163,-171.09916 z" fill="#66cc99" fill-rule="evenodd" opacity="0.6" stroke="#555555" stroke-width="0.1"/>
			<path d="M 88.47,-170.925 L 88.47,-170.925 L 88.47,-170.275 L 88.47,-170.275 L 88.4700000002,-170.275 L 89.5299999998,-170.275 L 89.53,-170.275 L 89.53,-170.275 L 89.53,-170.925 L 89.53,-170.925 L 89.5299999998,-170.925 L 88.4700000002,-170.925 L 88.47,-170.925 z" fill="#66cc99" fill-rule="evenodd" opacity="0.6" stroke="#555555" stroke-width="0.1"/>
			<path d="M 90.67,-170.925 L 90.67,-170.925 L 90.67,-170.275 L 90.67,-170.275 L 90.6700000002,-170.275 L 91.7299999998,-170.275 L 91.73,-170.275 L 91.73,-170.275 L 91.73,-170.925 L 91.73,-170.925 L 91.7299999998,-170.925 L 90.6700000002,-170.925 L 90.67,-170.925 z" fill="#66cc99" fill-rule="evenodd" opacity="0.6" stroke="#555555" stroke-width="0.1"/>
			<path d="M 92.60089,-170.80155 L 92.60089,-170.80155 L 92.60089,-169.70173 L 92.60089,-169.70173 L 92.6008900002,-169.70173 L 93.5991099998,-169.70173 L 93.59911,-169.70173 L 93.59911,-169.70173 L 93.59911,-170.80155 L 93.59911,-170.80155 L 93.5991099998,-170.80155 L 92.6008900002,-170.80155 L 92.60089,-170.80155 z" fill="#66cc99" fill-rule="evenodd" opacity="0.6" stroke="#555555" stroke-width="0.1"/>
			<path d="M 108.40173,-170.69911 L 108.40173,-170.69911 L 108.40173,-169.70089 L 108.40173,-169.70089 L 108.40173,-169.70089 L 109.50155,-169.70089 L 109.50155,-169.70089 L 109.50155,-169.70089 L 109.50155,-170.69911 L 109.50155,-170.69911 L 109.50155,-170.69911 L 108.40173,-170.69911 L 108.40173,-170.69911 z" fill="#66cc99" fill-rule="evenodd" opacity="0.6" stroke="#555555" stroke-width="0.1"/>
			<path d="M 110.09845,-170.69911 L 110.09845,-170.69911 L 110.09845,-169.70089 L 110.09845,-169.70089 L 110.09845,-169.70089 L 111.19827,-169.70089 L 111.19827,-169.70089 L 111.19827,-169.70089 L 111.19827,-170.69911 L 111.19827,-170.69911 L 111.19827,-170.69911 L 110.09845,-170.69911 L 110.09845,-170.69911 z" fill="#66cc99" fill-rule="evenodd" opacity="0.6" stroke="#555555" stroke-width="0.1"/>
			<path d="M 114.60025,-171.09916 L 114.60025,-171.09916 L 114.60025,-169.30084 L 114.60025,-169.30084 L 114.60025,-169.30084 L 116.19791,-169.30084 L 116.19791,-169.30084 L 116.19791,-169.30084 L 116.19791,-171.09916 L 116.19791,-171.09916 L 116.19791,-171.09916 L 114.60025,-171.09916 L 114.60025,-171.09916 z" fill="#66cc99" fill-rule="evenodd" opacity="0.6" stroke="#555555" stroke-width="0.1"/>
			<path d="M 111.80117,-171.09916 L 111.80117,-171.09916 L 111.80117,-169.30084 L 111.80117,-169.30084 L 111.80117,-169.30084 L 113.39883,-169.30084 L 113.39883,-169.30084 L 113.39883,-169.30084 L 113.39883,-171.09916 L 113.39883,-171.09916 L 113.39883,-171.09916 L 111.80117,-171.09916 L 111.80117,-171.09916 z" fill="#66cc99" fill-rule="evenodd" opacity="0.6" stroke="#555555" stroke-width="0.1"/>
			<path d="M 121.9,-166.2 L 121.9,-166.2 L 121.9,-164.2 L 121.9,-164.2 L 121.9,-164.2 L 125.9,-164.2 L 125.9,-164.2 L 125.9,-164.2 L 125.9,-166.2 L 125.9,-166.2 L 125.9,-166.2 L 121.9,-166.2 L 121.9,-166.2 z" fill="#66cc99" fill-rule="evenodd" opacity="0.6" stroke="#555555" stroke-width="0.1"/>
			<path d="M 119.60071,-166.09916 L 119.60071,-166.09916 L 119.60071,-164.30084 L 119.60071,-164.30084 L 119.60071,-164.30084 L 121.19837,-164.30084 L 121.19837,-164.30084 L 121.19837,-164.30084 L 121.19837,-166.09916 L 121.19837,-166.09916 L 121.19837,-166.09916 L 119.60071,-166.09916 L 119.60071,-166.09916 z" fill="#66cc99" fill-rule="evenodd" opacity="0.6" stroke="#555555" stroke-width="0.1"/>
			<path d="M 63.66,-164.0 L 63.66,-164.0 L 63.66,-161.8 L 63.66,-161.8 L 63.6600000002,-161.8 L 65.1599999998,-161.8 L 65.16,-161.8 L 65.16,-161.8 L 65.16,-164.0 L 65.16,-164.0 L 65.1599999998,-164.0 L 63.6600000002,-164.0 L 63.66,-164.0 z" fill="#66cc99" fill-rule="evenodd" opacity="0.6" stroke="#555555" stroke-width="0.1"/>
			<path d="M 61.36,-164.0 L 61.36,-164.0 L 61.36,-161.8 L 61.36,-161.8 L 61.3600000002,-161.8 L 62.8599999998,-161.8 L 62.86,-161.8 L 62.86,-161.8 L 62.86,-164.0 L 62.86,-164.0 L 62.8599999998,-164.0 L 61.3600000002,-164.0 L 61.36,-164.0 z" fill="#66cc99" fill-rule="evenodd" opacity="0.6" stroke="#555555" stroke-width="0.1"/>
			<path d="M 65.96,-164.0 L 65.96,-164.0 L 65.96,-161.8 L 65.96,-161.8 L 65.9600000002,-161.8 L 67.4599999998,-161.8 L 67.46,-161.8 L 67.46,-161.8 L 67.46,-164.0 L 67.46,-164.0 L 67.4599999998,-164.0 L 65.9600000002,-164.0 L 65.96,-164.0 z" fill="#66cc99" fill-rule="evenodd" opacity="0.6" stroke="#555555" stroke-width="0.1"/>
			<path d="M 62.20163,-166.74916 L 62.20163,-166.74916 L 62.20163,-164.95084 L 62.20163,-164.95084 L 62.2016300002,-164.95084 L 63.7992899998,-164.95084 L 63.79929,-164.95084 L 63.79929,-164.95084 L 63.79929,-166.74916 L 63.79929,-166.74916 L 63.7992899998,-166.74916 L 62.2016300002,-166.74916 L 62.20163,-166.74916 z" fill="#66cc99" fill-rule="evenodd" opacity="0.6" stroke="#555555" stroke-width="0.1"/>
			<path d="M 108.40173,-165.69911 L 108.40173,-165.69911 L 108.40173,-164.70089 L 108.40173,-164.70089 L 108.40173,-164.70089 L 109.50155,-164.70089 L 109.50155,-164.70089 L 109.50155,-164.70089 L 109.50155,-165.69911 L 109.50155,-165.69911 L 109.50155,-165.69911 L 108.40173,-165.69911 L 108.40173,-165.69911 z" fill="#66cc99" fill-rule="evenodd" opacity="0.6" stroke="#555555" stroke-width="0.1"/>
			<path d="M 65.00071,-166.74916 L 65.00071,-166.74916 L 65.00071,-164.95084 L 65.00071,-164.95084 L 65.0007100002,-164.95084 L 66.5983699998,-164.95084 L 66.59837,-164.95084 L 66.59837,-164.95084 L 66.59837,-166.74916 L 66.59837,-166.74916 L 66.5983699998,-166.74916 L 65.0007100002,-166.74916 L 65.00071,-166.74916 z" fill="#66cc99" fill-rule="evenodd" opacity="0.6" stroke="#555555" stroke-width="0.1"/>
			<path d="M 116.80163,-166.09916 L 116.80163,-166.09916 L 116.80163,-164.30084 L 116.80163,-164.30084 L 116.80163,-164.30084 L 118.39929,-164.30084 L 118.39929,-164.30084 L 118.39929,-164.30084 L 118.39929,-166.09916 L 118.39929,-166.09916 L 118.39929,-166.09916 L 116.80163,-166.09916 L 116.80163,-166.09916 z" fill="#66cc99" fill-rule="evenodd" opacity="0.6" stroke="#555555" stroke-width="0.1"/>
			<path d="M 110.09845,-165.69911 L 110.09845,-165.69911 L 110.09845,-164.70089 L 110.09845,-164.70089 L 110.09845,-164.70089 L 111.19827,-164.70089 L 111.19827,-164.70089 L 111.19827,-164.70089 L 111.19827,-165.69911 L 111.19827,-165.69911 L 111.19827,-165.69911 L 110.09845,-165.69911 L 110.09845,-165.69911 z" fill="#66cc99" fill-rule="evenodd" opacity="0.6" stroke="#555555" stroke-width="0.1"/>
			<path d="M 114.60025,-166.09916 L 114.60025,-166.09916 L 114.60025,-164.30084 L 114.60025,-164.30084 L 114.60025,-164.30084 L 116.19791,-164.30084 L 116.19791,-164.30084 L 116.19791,-164.30084 L 116.19791,-166.09916 L 116.19791,-166.09916 L 116.19791,-166.09916 L 114.60025,-166.09916 L 114.60025,-166.09916 z" fill="#66cc99" fill-rule="evenodd" opacity="0.6" stroke="#555555" stroke-width="0.1"/>
			<path d="M 111.80117,-166.09916 L 111.80117,-166.09916 L 111.80117,-164.30084 L 111.80117,-164.30084 L 111.80117,-164.30084 L 113.39883,-164.30084 L 113.39883,-164.30084 L 113.39883,-164.30084 L 113.39883,-166.09916 L 113.39883,-166.09916 L 113.39883,-166.09916 L 111.80117,-166.09916 L 111.80117,-166.09916 z" fill="#66cc99" fill-rule="evenodd" opacity="0.6" stroke="#555555" stroke-width="0.1"/>
			<path d="M 73.065,-165.375 L 73.065,-165.375 L 73.065,-163.825 L 73.065,-163.825 L 73.0650000002,-163.825 L 73.6649999998,-163.825 L 73.665,-163.825 L 73.665,-163.825 L 73.665,-165.375 L 73.665,-165.375 L 73.6649999998,-165.375 L 73.0650000002,-165.375 L 73.065,-165.375 z" fill="#66cc99" fill-rule="evenodd" opacity="0.6" stroke="#555555" stroke-width="0.1"/>
			<path d="M 74.335,-165.375 L 74.335,-165.375 L 74.335,-163.825 L 74.335,-163.825 L 74.3350000002,-163.825 L 74.9349999998,-163.825 L 74.935,-163.825 L 74.935,-163.825 L 74.935,-165.375 L 74.935,-165.375 L 74.9349999998,-165.375 L 74.3350000002,-165.375 L 74.335,-165.375 z" fill="#66cc99" fill-rule="evenodd" opacity="0.6" stroke="#555555" stroke-width="0.1"/>
			<path d="M 71.795,-165.375 L 71.795,-165.375 L 71.795,-163.825 L 71.795,-163.825 L 71.7950000002,-163.825 L 72.3949999998,-163.825 L 72.395,-163.825 L 72.395,-163.825 L 72.395,-165.375 L 72.395,-165.375 L 72.3949999998,-165.375 L 71.7950000002,-165.375 L 71.795,-165.375 z" fill="#66cc99" fill-rule="evenodd" opacity="0.6" stroke="#555555" stroke-width="0.1"/>
			<path d="M 78.89845,-165.49911 L 78.89845,-165.49911 L 78.89845,-164.50089 L 78.89845,-164.50089 L 78.8984500002,-164.50089 L 79.9982699998,-164.50089 L 79.99827,-164.50089 L 79.99827,-164.50089 L 79.99827,-165.49911 L 79.99827,-165.49911 L 79.9982699998,-165.49911 L 78.8984500002,-165.49911 L 78.89845,-165.49911 z" fill="#66cc99" fill-rule="evenodd" opacity="0.6" stroke="#555555" stroke-width="0.1"/>
			<path d="M 75.605,-165.375 L 75.605,-165.375 L 75.605,-163.825 L 75.605,-163.825 L 75.6050000002,-163.825 L 76.2049999998,-163.825 L 76.205,-163.825 L 76.205,-163.825 L 76.205,-165.375 L 76.205,-165.375 L 76.2049999998,-165.375 L 75.6050000002,-165.375 L 75.605,-165.375 z" fill="#66cc99" fill-rule="evenodd" opacity="0.6" stroke="#555555" stroke-width="0.1"/>
			<path d="M 77.20173,-165.49911 L 77.20173,-165.49911 L 77.20173,-164.50089 L 77.20173,-164.50089 L 77.2017300002,-164.50089 L 78.3015499998,-164.50089 L 78.30155,-164.50089 L 78.30155,-164.50089 L 78.30155,-165.49911 L 78.30155,-165.49911 L 78.3015499998,-165.49911 L 77.2017300002,-165.49911 L 77.20173,-165.49911 z" fill="#66cc99" fill-rule="evenodd" opacity="0.6" stroke="#555555" stroke-width="0.1"/>
			<path d="M 61.4,-171.4 L 61.4,-171.4 L 61.4,-167.4 L 61.4,-167.4 L 61.4000000002,-167.4 L 63.3999999998,-167.4 L 63.4,-167.4 L 63.4,-167.4 L 63.4,-171.4 L 63.4,-171.4 L 63.3999999998,-171.4 L 61.4000000002,-171.4 L 61.4,-171.4 z" fill="#66cc99" fill-rule="evenodd" opacity="0.6" stroke="#555555" stroke-width="0.1"/>
			<path d="M 65.1,-171.35 L 65.1,-171.35 L 65.1,-167.35 L 65.1,-167.35 L 65.1000000002,-167.35 L 67.0999999998,-167.35 L 67.1,-167.35 L 67.1,-167.35 L 67.1,-171.35 L 67.1,-171.35 L 67.0999999998,-171.35 L 65.1000000002,-171.35 L 65.1,-171.35 z" fill="#66cc99" fill-rule="evenodd" opacity="0.6" stroke="#555555" stroke-width="0.1"/>
			<path d="M 89.49845,-167.79911 L 89.49845,-167.79911 L 89.49845,-166.80089 L 89.49845,-166.80089 L 89.4984500002,-166.80089 L 90.5982699998,-166.80089 L 90.59827,-166.80089 L 90.59827,-166.80089 L 90.59827,-167.79911 L 90.59827,-167.79911 L 90.5982699998,-167.79911 L 89.4984500002,-167.79911 L 89.49845,-167.79911 z" fill="#66cc99" fill-rule="evenodd" opacity="0.6" stroke="#555555" stroke-width="0.1"/>
			<path d="M 87.80173,-167.79911 L 87.80173,-167.79911 L 87.80173,-166.80089 L 87.80173,-166.80089 L 87.8017300002,-166.80089 L 88.9015499998,-166.80089 L 88.90155,-166.80089 L 88.90155,-166.80089 L 88.90155,-167.79911 L 88.90155,-167.79911 L 88.9015499998,-167.79911 L 87.8017300002,-167.79911 L 87.80173,-167.79911 z" fill="#66cc99" fill-rule="evenodd" opacity="0.6" stroke="#555555" stroke-width="0.1"/>
			<path d="M 69.224791,-167.563011 L 69.224791,-167.563011 L 69.224791,-166.564791 L 69.224791,-166.564791 L 69.2247910002,-166.564791 L 70.3246109998,-166.564791 L 70.324611,-166.564791 L 70.324611,-166.564791 L 70.324611,-167.563011 L 70.324611,-167.563011 L 70.3246109998,-167.563011 L 69.2247910002,-167.563011 L 69.224791,-167.563011 z" fill="#66cc99" fill-rule="evenodd" opacity="0.6" stroke="#555555" stroke-width="0.1"/>
			<path d="M 70.921511,-167.563011 L 70.921511,-167.563011 L 70.921511,-166.564791 L 70.921511,-166.564791 L 70.9215110002,-166.564791 L 72.0213309998,-166.564791 L 72.021331,-166.564791 L 72.021331,-166.564791 L 72.021331,-167.563011 L 72.021331,-167.563011 L 72.0213309998,-167.563011 L 70.9215110002,-167.563011 L 70.921511,-167.563011 z" fill="#66cc99" fill-rule="evenodd" opacity="0.6" stroke="#555555" stroke-width="0.1"/>
			<path d="M 72.464791,-167.563011 L 72.464791,-167.563011 L 72.464791,-166.564791 L 72.464791,-166.564791 L 72.4647910002,-166.564791 L 73.5646109998,-166.564791 L 73.564611,-166.564791 L 73.564611,-166.564791 L 73.564611,-167.563011 L 73.564611,-167.563011 L 73.5646109998,-167.563011 L 72.4647910002,-167.563011 L 72.464791,-167.563011 z" fill="#66cc99" fill-rule="evenodd" opacity="0.6" stroke="#555555" stroke-width="0.1"/>
			<path d="M 74.161511,-167.563011 L 74.161511,-167.563011 L 74.161511,-166.564791 L 74.161511,-166.564791 L 74.1615110002,-166.564791 L 75.2613309998,-166.564791 L 75.261331,-166.564791 L 75.261331,-166.564791 L 75.261331,-167.563011 L 75.261331,-167.563011 L 75.2613309998,-167.563011 L 74.1615110002,-167.563011 L 74.161511,-167.563011 z" fill="#66cc99" fill-rule="evenodd" opacity="0.6" stroke="#555555" stroke-width="0.1"/>
			<path d="M 78.10173,-167.19911 L 78.10173,-167.19911 L 78.10173,-166.20089 L 78.10173,-166.20089 L 78.1017300002,-166.20089 L 79.2015499998,-166.20089 L 79.20155,-166.20089 L 79.20155,-166.20089 L 79.20155,-167.19911 L 79.20155,-167.19911 L 79.2015499998,-167.19911 L 78.1017300002,-167.19911 L 78.10173,-167.19911 z" fill="#66cc99" fill-rule="evenodd" opacity="0.6" stroke="#555555" stroke-width="0.1"/>
			<path d="M 79.79845,-167.19911 L 79.79845,-167.19911 L 79.79845,-166.20089 L 79.79845,-166.20089 L 79.7984500002,-166.20089 L 80.8982699998,-166.20089 L 80.89827,-166.20089 L 80.89827,-166.20089 L 80.89827,-167.19911 L 80.89827,-167.19911 L 80.8982699998,-167.19911 L 79.7984500002,-167.19911 L 79.79845,-167.19911 z" fill="#66cc99" fill-rule="evenodd" opacity="0.6" stroke="#555555" stroke-width="0.1"/>
			<path d="M 83.005,-167.305 L 83.005,-167.305 L 83.005,-165.755 L 83.005,-165.755 L 83.0050000002,-165.755 L 83.6049999998,-165.755 L 83.605,-165.755 L 83.605,-165.755 L 83.605,-167.305 L 83.605,-167.305 L 83.6049999998,-167.305 L 83.0050000002,-167.305 L 83.005,-167.305 z" fill="#66cc99" fill-rule="evenodd" opacity="0.6" stroke="#555555" stroke-width="0.1"/>
			<path d="M 85.545,-167.305 L 85.545,-167.305 L 85.545,-165.755 L 85.545,-165.755 L 85.5450000002,-165.755 L 86.1449999998,-165.755 L 86.145,-165.755 L 86.145,-165.755 L 86.145,-167.305 L 86.145,-167.305 L 86.1449999998,-167.305 L 85.5450000002,-167.305 L 85.545,-167.305 z" fill="#66cc99" fill-rule="evenodd" opacity="0.6" stroke="#555555" stroke-width="0.1"/>
			<path d="M 84.275,-167.305 L 84.275,-167.305 L 84.275,-165.755 L 84.275,-165.755 L 84.2750000002,-165.755 L 84.8749999998,-165.755 L 84.875,-165.755 L 84.875,-165.755 L 84.875,-167.305 L 84.875,-167.305 L 84.8749999998,-167.305 L 84.2750000002,-167.305 L 84.275,-167.305 z" fill="#66cc99" fill-rule="evenodd" opacity="0.6" stroke="#555555" stroke-width="0.1"/>
			<path d="M 81.735,-167.305 L 81.735,-167.305 L 81.735,-165.755 L 81.735,-165.755 L 81.7350000002,-165.755 L 82.3349999998,-165.755 L 82.335,-165.755 L 82.335,-165.755 L 82.335,-167.305 L 82.335,-167.305 L 82.3349999998,-167.305 L 81.7350000002,-167.305 L 81.735,-167.305 z" fill="#66cc99" fill-rule="evenodd" opacity="0.6" stroke="#555555" stroke-width="0.1"/>
			<path d="M 90.235,-162.5 L 90.235,-162.5 L 90.235,-160.5 L 90.235,-160.5 L 90.2350000002,-160.5 L 90.8349999998,-160.5 L 90.835,-160.5 L 90.835,-160.5 L 90.835,-162.5 L 90.835,-162.5 L 90.8349999998,-162.5 L 90.2350000002,-162.5 L 90.235,-162.5 z" fill="#66cc99" fill-rule="evenodd" opacity="0.6" stroke="#555555" stroke-width="0.1"/>
			<path d="M 69.95089,-162.69827 L 69.95089,-162.69827 L 69.95089,-161.59845 L 69.95089,-161.59845 L 69.9508900002,-161.59845 L 70.9491099998,-161.59845 L 70.94911,-161.59845 L 70.94911,-161.59845 L 70.94911,-162.69827 L 70.94911,-162.69827 L 70.9491099998,-162.69827 L 69.9508900002,-162.69827 L 69.95089,-162.69827 z" fill="#66cc99" fill-rule="evenodd" opacity="0.6" stroke="#555555" stroke-width="0.1"/>
			<path d="M 69.95089,-161.00155 L 69.95089,-161.00155 L 69.95089,-159.90173 L 69.95089,-159.90173 L 69.9508900002,-159.90173 L 70.9491099998,-159.90173 L 70.94911,-159.90173 L 70.94911,-159.90173 L 70.94911,-161.00155 L 70.94911,-161.00155 L 70.9491099998,-161.00155 L 69.9508900002,-161.00155 L 69.95089,-161.00155 z" fill="#66cc99" fill-rule="evenodd" opacity="0.6" stroke="#555555" stroke-width="0.1"/>
			<path d="M 121.9,-161.2 L 121.9,-161.2 L 121.9,-159.2 L 121.9,-159.2 L 121.9,-159.2 L 125.9,-159.2 L 125.9,-159.2 L 125.9,-159.2 L 125.9,-161.2 L 125.9,-161.2 L 125.9,-161.2 L 121.9,-161.2 L 121.9,-161.2 z" fill="#66cc99" fill-rule="evenodd" opacity="0.6" stroke="#555555" stroke-width="0.1"/>
			<path d="M 119.60071,-161.09916 L 119.60071,-161.09916 L 119.60071,-159.30084 L 119.60071,-159.30084 L 119.60071,-159.30084 L 121.19837,-159.30084 L 121.19837,-159.30084 L 121.19837,-159.30084 L 121.19837,-161.09916 L 121.19837,-161.09916 L 121.19837,-161.09916 L 119.60071,-161.09916 L 119.60071,-161.09916 z" fill="#66cc99" fill-rule="evenodd" opacity="0.6" stroke="#555555" stroke-width="0.1"/>
			<path d="M 116.80163,-161.09916 L 116.80163,-161.09916 L 116.80163,-159.30084 L 116.80163,-159.30084 L 116.80163,-159.30084 L 118.39929,-159.30084 L 118.39929,-159.30084 L 118.39929,-159.30084 L 118.39929,-161.09916 L 118.39929,-161.09916 L 118.39929,-161.09916 L 116.80163,-161.09916 L 116.80163,-161.09916 z" fill="#66cc99" fill-rule="evenodd" opacity="0.6" stroke="#555555" stroke-width="0.1"/>
			<path d="M 114.60025,-161.09916 L 114.60025,-161.09916 L 114.60025,-159.30084 L 114.60025,-159.30084 L 114.60025,-159.30084 L 116.19791,-159.30084 L 116.19791,-159.30084 L 116.19791,-159.30084 L 116.19791,-161.09916 L 116.19791,-161.09916 L 116.19791,-161.09916 L 114.60025,-161.09916 L 114.60025,-161.09916 z" fill="#66cc99" fill-rule="evenodd" opacity="0.6" stroke="#555555" stroke-width="0.1"/>
			<path d="M 110.09845,-160.69911 L 110.09845,-160.69911 L 110.09845,-159.70089 L 110.09845,-159.70089 L 110.09845,-159.70089 L 111.19827,-159.70089 L 111.19827,-159.70089 L 111.19827,-159.70089 L 111.19827,-160.69911 L 111.19827,-160.69911 L 111.19827,-160.69911 L 110.09845,-160.69911 L 110.09845,-160.69911 z" fill="#66cc99" fill-rule="evenodd" opacity="0.6" stroke="#555555" stroke-width="0.1"/>
			<path d="M 111.80117,-161.09916 L 111.80117,-161.09916 L 111.80117,-159.30084 L 111.80117,-159.30084 L 111.80117,-159.30084 L 113.39883,-159.30084 L 113.39883,-159.30084 L 113.39883,-159.30084 L 113.39883,-161.09916 L 113.39883,-161.09916 L 113.39883,-161.09916 L 111.80117,-161.09916 L 111.80117,-161.09916 z" fill="#66cc99" fill-rule="evenodd" opacity="0.6" stroke="#555555" stroke-width="0.1"/>
			<path d="M 108.40173,-160.69911 L 108.40173,-160.69911 L 108.40173,-159.70089 L 108.40173,-159.70089 L 108.40173,-159.70089 L 109.50155,-159.70089 L 109.50155,-159.70089 L 109.50155,-159.70089 L 109.50155,-160.69911 L 109.50155,-160.69911 L 109.50155,-160.69911 L 108.40173,-160.69911 L 108.40173,-160.69911 z" fill="#66cc99" fill-rule="evenodd" opacity="0.6" stroke="#555555" stroke-width="0.1"/>
			<path d="M 102.935,-162.5 L 102.935,-162.5 L 102.935,-160.5 L 102.935,-160.5 L 102.935,-160.5 L 103.535,-160.5 L 103.535,-160.5 L 103.535,-160.5 L 103.535,-162.5 L 103.535,-162.5 L 103.535,-162.5 L 102.935,-162.5 L 102.935,-162.5 z" fill="#66cc99" fill-rule="evenodd" opacity="0.6" stroke="#555555" stroke-width="0.1"/>
			<path d="M 101.665,-162.5 L 101.665,-162.5 L 101.665,-160.5 L 101.665,-160.5 L 101.665,-160.5 L 102.265,-160.5 L 102.265,-160.5 L 102.265,-160.5 L 102.265,-162.5 L 102.265,-162.5 L 102.265,-162.5 L 101.665,-162.5 L 101.665,-162.5 z" fill="#66cc99" fill-rule="evenodd" opacity="0.6" stroke="#555555" stroke-width="0.1"/>
			<path d="M 100.395,-162.5 L 100.395,-162.5 L 100.395,-160.5 L 100.395,-160.5 L 100.395,-160.5 L 100.995,-160.5 L 100.995,-160.5 L 100.995,-160.5 L 100.995,-162.5 L 100.995,-162.5 L 100.995,-162.5 L 100.395,-162.5 L 100.395,-162.5 z" fill="#66cc99" fill-rule="evenodd" opacity="0.6" stroke="#555555" stroke-width="0.1"/>
			<path d="M 99.125,-162.5 L 99.125,-162.5 L 99.125,-160.5 L 99.125,-160.5 L 99.1250000002,-160.5 L 99.7249999998,-160.5 L 99.725,-160.5 L 99.725,-160.5 L 99.725,-162.5 L 99.725,-162.5 L 99.7249999998,-162.5 L 99.1250000002,-162.5 L 99.125,-162.5 z" fill="#66cc99" fill-rule="evenodd" opacity="0.6" stroke="#555555" stroke-width="0.1"/>
			<path d="M 97.855,-162.5 L 97.855,-162.5 L 97.855,-160.5 L 97.855,-160.5 L 97.8550000002,-160.5 L 98.4549999998,-160.5 L 98.455,-160.5 L 98.455,-160.5 L 98.455,-162.5 L 98.455,-162.5 L 98.4549999998,-162.5 L 97.8550000002,-162.5 L 97.855,-162.5 z" fill="#66cc99" fill-rule="evenodd" opacity="0.6" stroke="#555555" stroke-width="0.1"/>
			<path d="M 85.545,-161.905 L 85.545,-161.905 L 85.545,-160.355 L 85.545,-160.355 L 85.5450000002,-160.355 L 86.1449999998,-160.355 L 86.145,-160.355 L 86.145,-160.355 L 86.145,-161.905 L 86.145,-161.905 L 86.1449999998,-161.905 L 85.5450000002,-161.905 L 85.545,-161.905 z" fill="#66cc99" fill-rule="evenodd" opacity="0.6" stroke="#555555" stroke-width="0.1"/>
			<path d="M 84.275,-161.905 L 84.275,-161.905 L 84.275,-160.355 L 84.275,-160.355 L 84.2750000002,-160.355 L 84.8749999998,-160.355 L 84.875,-160.355 L 84.875,-160.355 L 84.875,-161.905 L 84.875,-161.905 L 84.8749999998,-161.905 L 84.2750000002,-161.905 L 84.275,-161.905 z" fill="#66cc99" fill-rule="evenodd" opacity="0.6" stroke="#555555" stroke-width="0.1"/>
			<path d="M 83.005,-161.905 L 83.005,-161.905 L 83.005,-160.355 L 83.005,-160.355 L 83.0050000002,-160.355 L 83.6049999998,-160.355 L 83.605,-160.355 L 83.605,-160.355 L 83.605,-161.905 L 83.605,-161.905 L 83.6049999998,-161.905 L 83.0050000002,-161.905 L 83.005,-161.905 z" fill="#66cc99" fill-rule="evenodd" opacity="0.6" stroke="#555555" stroke-width="0.1"/>
			<path d="M 81.735,-161.905 L 81.735,-161.905 L 81.735,-160.355 L 81.735,-160.355 L 81.7350000002,-160.355 L 82.3349999998,-160.355 L 82.335,-160.355 L 82.335,-160.355 L 82.335,-161.905 L 82.335,-161.905 L 82.3349999998,-161.905 L 81.7350000002,-161.905 L 81.735,-161.905 z" fill="#66cc99" fill-rule="evenodd" opacity="0.6" stroke="#555555" stroke-width="0.1"/>
			<path d="M 88.965,-162.5 L 88.965,-162.5 L 88.965,-160.5 L 88.965,-160.5 L 88.9650000002,-160.5 L 89.5649999998,-160.5 L 89.565,-160.5 L 89.565,-160.5 L 89.565,-162.5 L 89.565,-162.5 L 89.5649999998,-162.5 L 88.9650000002,-162.5 L 88.965,-162.5 z" fill="#66cc99" fill-rule="evenodd" opacity="0.6" stroke="#555555" stroke-width="0.1"/>
			<path d="M 94.045,-162.5 L 94.045,-162.5 L 94.045,-160.5 L 94.045,-160.5 L 94.0450000002,-160.5 L 94.6449999998,-160.5 L 94.645,-160.5 L 94.645,-160.5 L 94.645,-162.5 L 94.645,-162.5 L 94.6449999998,-162.5 L 94.0450000002,-162.5 L 94.045,-162.5 z" fill="#66cc99" fill-rule="evenodd" opacity="0.6" stroke="#555555" stroke-width="0.1"/>
			<path d="M 95.315,-162.5 L 95.315,-162.5 L 95.315,-160.5 L 95.315,-160.5 L 95.3150000002,-160.5 L 95.9149999998,-160.5 L 95.915,-160.5 L 95.915,-160.5 L 95.915,-162.5 L 95.915,-162.5 L 95.9149999998,-162.5 L 95.3150000002,-162.5 L 95.315,-162.5 z" fill="#66cc99" fill-rule="evenodd" opacity="0.6" stroke="#555555" stroke-width="0.1"/>
			<path d="M 96.585,-162.5 L 96.585,-162.5 L 96.585,-160.5 L 96.585,-160.5 L 96.5850000002,-160.5 L 97.1849999998,-160.5 L 97.185,-160.5 L 97.185,-160.5 L 97.185,-162.5 L 97.185,-162.5 L 97.1849999998,-162.5 L 96.5850000002,-162.5 L 96.585,-162.5 z" fill="#66cc99" fill-rule="evenodd" opacity="0.6" stroke="#555555" stroke-width="0.1"/>
			<path d="M 91.505,-162.5 L 91.505,-162.5 L 91.505,-160.5 L 91.505,-160.5 L 91.5050000002,-160.5 L 92.1049999998,-160.5 L 92.105,-160.5 L 92.105,-160.5 L 92.105,-162.5 L 92.105,-162.5 L 92.1049999998,-162.5 L 91.5050000002,-162.5 L 91.505,-162.5 z" fill="#66cc99" fill-rule="evenodd" opacity="0.6" stroke="#555555" stroke-width="0.1"/>
			<path d="M 92.775,-162.5 L 92.775,-162.5 L 92.775,-160.5 L 92.775,-160.5 L 92.7750000002,-160.5 L 93.3749999998,-160.5 L 93.375,-160.5 L 93.375,-160.5 L 93.375,-162.5 L 93.375,-162.5 L 93.3749999998,-162.5 L 92.7750000002,-162.5 L 92.775,-162.5 z" fill="#66cc99" fill-rule="evenodd" opacity="0.6" stroke="#555555" stroke-width="0.1"/>
			<path d="M 79.30089,-160.79827 L 79.30089,-160.79827 L 79.30089,-159.69845 L 79.30089,-159.69845 L 79.3008900002,-159.69845 L 80.2991099998,-159.69845 L 80.29911,-159.69845 L 80.29911,-159.69845 L 80.29911,-160.79827 L 80.29911,-160.79827 L 80.2991099998,-160.79827 L 79.3008900002,-160.79827 L 79.30089,-160.79827 z" fill="#66cc99" fill-rule="evenodd" opacity="0.6" stroke="#555555" stroke-width="0.1"/>
			<path d="M 62.51,-157.7 L 62.51,-157.7 L 62.51,-155.5 L 62.51,-155.5 L 62.5100000002,-155.5 L 66.3099999998,-155.5 L 66.31,-155.5 L 66.31,-155.5 L 66.31,-157.7 L 66.31,-157.7 L 66.3099999998,-157.7 L 62.5100000002,-157.7 L 62.51,-157.7 z" fill="#66cc99" fill-rule="evenodd" opacity="0.6" stroke="#555555" stroke-width="0.1"/>
			<path d="M 121.9,-156.2 L 121.9,-156.2 L 121.9,-154.2 L 121.9,-154.2 L 121.9,-154.2 L 125.9,-154.2 L 125.9,-154.2 L 125.9,-154.2 L 125.9,-156.2 L 125.9,-156.2 L 125.9,-156.2 L 121.9,-156.2 L 121.9,-156.2 z" fill="#66cc99" fill-rule="evenodd" opacity="0.6" stroke="#555555" stroke-width="0.1"/>
			<path d="M 116.80163,-156.09916 L 116.80163,-156.09916 L 116.80163,-154.30084 L 116.80163,-154.30084 L 116.80163,-154.30084 L 118.39929,-154.30084 L 118.39929,-154.30084 L 118.39929,-154.30084 L 118.39929,-156.09916 L 118.39929,-156.09916 L 118.39929,-156.09916 L 116.80163,-156.09916 L 116.80163,-156.09916 z" fill="#66cc99" fill-rule="evenodd" opacity="0.6" stroke="#555555" stroke-width="0.1"/>
			<path d="M 119.60071,-156.09916 L 119.60071,-156.09916 L 119.60071,-154.30084 L 119.60071,-154.30084 L 119.60071,-154.30084 L 121.19837,-154.30084 L 121.19837,-154.30084 L 121.19837,-154.30084 L 121.19837,-156.09916 L 121.19837,-156.09916 L 121.19837,-156.09916 L 119.60071,-156.09916 L 119.60071,-156.09916 z" fill="#66cc99" fill-rule="evenodd" opacity="0.6" stroke="#555555" stroke-width="0.1"/>
			<path d="M 82.55337,-157.49911 L 82.55337,-157.49911 L 82.55337,-156.50089 L 82.55337,-156.50089 L 82.5533700002,-156.50089 L 83.6531899998,-156.50089 L 83.65319,-156.50089 L 83.65319,-156.50089 L 83.65319,-157.49911 L 83.65319,-157.49911 L 83.6531899998,-157.49911 L 82.5533700002,-157.49911 L 82.55337,-157.49911 z" fill="#66cc99" fill-rule="evenodd" opacity="0.6" stroke="#555555" stroke-width="0.1"/>
			<path d="M 84.25009,-157.49911 L 84.25009,-157.49911 L 84.25009,-156.50089 L 84.25009,-156.50089 L 84.2500900002,-156.50089 L 85.3499099998,-156.50089 L 85.34991,-156.50089 L 85.34991,-156.50089 L 85.34991,-157.49911 L 85.34991,-157.49911 L 85.3499099998,-157.49911 L 84.2500900002,-157.49911 L 84.25009,-157.49911 z" fill="#66cc99" fill-rule="evenodd" opacity="0.6" stroke="#555555" stroke-width="0.1"/>
			<path d="M 75.99845,-157.223011 L 75.99845,-157.223011 L 75.99845,-156.224791 L 75.99845,-156.224791 L 75.9984500002,-156.224791 L 77.0982699998,-156.224791 L 77.09827,-156.224791 L 77.09827,-156.224791 L 77.09827,-157.223011 L 77.09827,-157.223011 L 77.0982699998,-157.223011 L 75.9984500002,-157.223011 L 75.99845,-157.223011 z" fill="#66cc99" fill-rule="evenodd" opacity="0.6" stroke="#555555" stroke-width="0.1"/>
			<path d="M 70.824791,-157.223011 L 70.824791,-157.223011 L 70.824791,-156.224791 L 70.824791,-156.224791 L 70.8247910002,-156.224791 L 71.9246109998,-156.224791 L 71.924611,-156.224791 L 71.924611,-156.224791 L 71.924611,-157.223011 L 71.924611,-157.223011 L 71.9246109998,-157.223011 L 70.8247910002,-157.223011 L 70.824791,-157.223011 z" fill="#66cc99" fill-rule="evenodd" opacity="0.6" stroke="#555555" stroke-width="0.1"/>
			<path d="M 74.30173,-157.223011 L 74.30173,-157.223011 L 74.30173,-156.224791 L 74.30173,-156.224791 L 74.3017300002,-156.224791 L 75.4015499998,-156.224791 L 75.40155,-156.224791 L 75.40155,-156.224791 L 75.40155,-157.223011 L 75.40155,-157.223011 L 75.4015499998,-157.223011 L 74.3017300002,-157.223011 L 74.30173,-157.223011 z" fill="#66cc99" fill-rule="evenodd" opacity="0.6" stroke="#555555" stroke-width="0.1"/>
			<path d="M 72.521511,-157.223011 L 72.521511,-157.223011 L 72.521511,-156.224791 L 72.521511,-156.224791 L 72.5215110002,-156.224791 L 73.6213309998,-156.224791 L 73.621331,-156.224791 L 73.621331,-156.224791 L 73.621331,-157.223011 L 73.621331,-157.223011 L 73.6213309998,-157.223011 L 72.5215110002,-157.223011 L 72.521511,-157.223011 z" fill="#66cc99" fill-rule="evenodd" opacity="0.6" stroke="#555555" stroke-width="0.1"/>
			<path d="M 82.60173,-154.09911 L 82.60173,-154.09911 L 82.60173,-153.10089 L 82.60173,-153.10089 L 82.6017300002,-153.10089 L 83.7015499998,-153.10089 L 83.70155,-153.10089 L 83.70155,-153.10089 L 83.70155,-154.09911 L 83.70155,-154.09911 L 83.7015499998,-154.09911 L 82.6017300002,-154.09911 L 82.60173,-154.09911 z" fill="#66cc99" fill-rule="evenodd" opacity="0.6" stroke="#555555" stroke-width="0.1"/>
			<path d="M 84.29845,-154.09911 L 84.29845,-154.09911 L 84.29845,-153.10089 L 84.29845,-153.10089 L 84.2984500002,-153.10089 L 85.3982699998,-153.10089 L 85.39827,-153.10089 L 85.39827,-153.10089 L 85.39827,-154.09911 L 85.39827,-154.09911 L 85.3982699998,-154.09911 L 84.2984500002,-154.09911 L 84.29845,-154.09911 z" fill="#66cc99" fill-rule="evenodd" opacity="0.6" stroke="#555555" stroke-width="0.1"/>
			<path d="M 111.80117,-156.09916 L 111.80117,-156.09916 L 111.80117,-154.30084 L 111.80117,-154.30084 L 111.80117,-154.30084 L 113.39883,-154.30084 L 113.39883,-154.30084 L 113.39883,-154.30084 L 113.39883,-156.09916 L 113.39883,-156.09916 L 113.39883,-156.09916 L 111.80117,-156.09916 L 111.80117,-156.09916 z" fill="#66cc99" fill-rule="evenodd" opacity="0.6" stroke="#555555" stroke-width="0.1"/>
			<path d="M 108.40173,-155.69911 L 108.40173,-155.69911 L 108.40173,-154.70089 L 108.40173,-154.70089 L 108.40173,-154.70089 L 109.50155,-154.70089 L 109.50155,-154.70089 L 109.50155,-154.70089 L 109.50155,-155.69911 L 109.50155,-155.69911 L 109.50155,-155.69911 L 108.40173,-155.69911 L 108.40173,-155.69911 z" fill="#66cc99" fill-rule="evenodd" opacity="0.6" stroke="#555555" stroke-width="0.1"/>
			<path d="M 110.09845,-155.69911 L 110.09845,-155.69911 L 110.09845,-154.70089 L 110.09845,-154.70089 L 110.09845,-154.70089 L 111.19827,-154.70089 L 111.19827,-154.70089 L 111.19827,-154.70089 L 111.19827,-155.69911 L 111.19827,-155.69911 L 111.19827,-155.69911 L 110.09845,-155.69911 L 110.09845,-155.69911 z" fill="#66cc99" fill-rule="evenodd" opacity="0.6" stroke="#555555" stroke-width="0.1"/>
			<path d="M 114.60025,-156.09916 L 114.60025,-156.09916 L 114.60025,-154.30084 L 114.60025,-154.30084 L 114.60025,-154.30084 L 116.19791,-154.30084 L 116.19791,-154.30084 L 116.19791,-154.30084 L 116.19791,-156.09916 L 116.19791,-156.09916 L 116.19791,-156.09916 L 114.60025,-156.09916 L 114.60025,-156.09916 z" fill="#66cc99" fill-rule="evenodd" opacity="0.6" stroke="#555555" stroke-width="0.1"/>
			<path d="M 108.40173,-150.69911 L 108.40173,-150.69911 L 108.40173,-149.70089 L 108.40173,-149.70089 L 108.40173,-149.70089 L 109.50155,-149.70089 L 109.50155,-149.70089 L 109.50155,-149.70089 L 109.50155,-150.69911 L 109.50155,-150.69911 L 109.50155,-150.69911 L 108.40173,-150.69911 L 108.40173,-150.69911 z" fill="#66cc99" fill-rule="evenodd" opacity="0.6" stroke="#555555" stroke-width="0.1"/>
			<path d="M 110.09845,-150.69911 L 110.09845,-150.69911 L 110.09845,-149.70089 L 110.09845,-149.70089 L 110.09845,-149.70089 L 111.19827,-149.70089 L 111.19827,-149.70089 L 111.19827,-149.70089 L 111.19827,-150.69911 L 111.19827,-150.69911 L 111.19827,-150.69911 L 110.09845,-150.69911 L 110.09845,-150.69911 z" fill="#66cc99" fill-rule="evenodd" opacity="0.6" stroke="#555555" stroke-width="0.1"/>
			<path d="M 81.75,-152.275 L 81.75,-152.275 L 81.75,-150.825 L 81.75,-150.825 L 81.7500000002,-150.825 L 82.1999999998,-150.825 L 82.2,-150.825 L 82.2,-150.825 L 82.2,-152.275 L 82.2,-152.275 L 82.1999999998,-152.275 L 81.7500000002,-152.275 L 81.75,-152.275 z" fill="#66cc99" fill-rule="evenodd" opacity="0.6" stroke="#555555" stroke-width="0.1"/>
			<path d="M 96.585,-153.1 L 96.585,-153.1 L 96.585,-151.1 L 96.585,-151.1 L 96.5850000002,-151.1 L 97.1849999998,-151.1 L 97.185,-151.1 L 97.185,-151.1 L 97.185,-153.1 L 97.185,-153.1 L 97.1849999998,-153.1 L 96.5850000002,-153.1 L 96.585,-153.1 z" fill="#66cc99" fill-rule="evenodd" opacity="0.6" stroke="#555555" stroke-width="0.1"/>
			<path d="M 92.775,-153.1 L 92.775,-153.1 L 92.775,-151.1 L 92.775,-151.1 L 92.7750000002,-151.1 L 93.3749999998,-151.1 L 93.375,-151.1 L 93.375,-151.1 L 93.375,-153.1 L 93.375,-153.1 L 93.3749999998,-153.1 L 92.7750000002,-153.1 L 92.775,-153.1 z" fill="#66cc99" fill-rule="evenodd" opacity="0.6" stroke="#555555" stroke-width="0.1"/>
			<path d="M 91.505,-153.1 L 91.505,-153.1 L 91.505,-151.1 L 91.505,-151.1 L 91.5050000002,-151.1 L 92.1049999998,-151.1 L 92.105,-151.1 L 92.105,-151.1 L 92.105,-153.1 L 92.105,-153.1 L 92.1049999998,-153.1 L 91.5050000002,-153.1 L 91.505,-153.1 z" fill="#66cc99" fill-rule="evenodd" opacity="0.6" stroke="#555555" stroke-width="0.1"/>
			<path d="M 101.665,-153.1 L 101.665,-153.1 L 101.665,-151.1 L 101.665,-151.1 L 101.665,-151.1 L 102.265,-151.1 L 102.265,-151.1 L 102.265,-151.1 L 102.265,-153.1 L 102.265,-153.1 L 102.265,-153.1 L 101.665,-153.1 L 101.665,-153.1 z" fill="#66cc99" fill-rule="evenodd" opacity="0.6" stroke="#555555" stroke-width="0.1"/>
			<path d="M 94.045,-153.1 L 94.045,-153.1 L 94.045,-151.1 L 94.045,-151.1 L 94.0450000002,-151.1 L 94.6449999998,-151.1 L 94.645,-151.1 L 94.645,-151.1 L 94.645,-153.1 L 94.645,-153.1 L 94.6449999998,-153.1 L 94.0450000002,-153.1 L 94.045,-153.1 z" fill="#66cc99" fill-rule="evenodd" opacity="0.6" stroke="#555555" stroke-width="0.1"/>
			<path d="M 102.935,-153.1 L 102.935,-153.1 L 102.935,-151.1 L 102.935,-151.1 L 102.935,-151.1 L 103.535,-151.1 L 103.535,-151.1 L 103.535,-151.1 L 103.535,-153.1 L 103.535,-153.1 L 103.535,-153.1 L 102.935,-153.1 L 102.935,-153.1 z" fill="#66cc99" fill-rule="evenodd" opacity="0.6" stroke="#555555" stroke-width="0.1"/>
			<path d="M 88.965,-153.1 L 88.965,-153.1 L 88.965,-151.1 L 88.965,-151.1 L 88.9650000002,-151.1 L 89.5649999998,-151.1 L 89.565,-151.1 L 89.565,-151.1 L 89.565,-153.1 L 89.565,-153.1 L 89.5649999998,-153.1 L 88.9650000002,-153.1 L 88.965,-153.1 z" fill="#66cc99" fill-rule="evenodd" opacity="0.6" stroke="#555555" stroke-width="0.1"/>
			<path d="M 90.235,-153.1 L 90.235,-153.1 L 90.235,-151.1 L 90.235,-151.1 L 90.2350000002,-151.1 L 90.8349999998,-151.1 L 90.835,-151.1 L 90.835,-151.1 L 90.835,-153.1 L 90.835,-153.1 L 90.8349999998,-153.1 L 90.2350000002,-153.1 L 90.235,-153.1 z" fill="#66cc99" fill-rule="evenodd" opacity="0.6" stroke="#555555" stroke-width="0.1"/>
			<path d="M 97.855,-153.1 L 97.855,-153.1 L 97.855,-151.1 L 97.855,-151.1 L 97.8550000002,-151.1 L 98.4549999998,-151.1 L 98.455,-151.1 L 98.455,-151.1 L 98.455,-153.1 L 98.455,-153.1 L 98.4549999998,-153.1 L 97.8550000002,-153.1 L 97.855,-153.1 z" fill="#66cc99" fill-rule="evenodd" opacity="0.6" stroke="#555555" stroke-width="0.1"/>
			<path d="M 100.395,-153.1 L 100.395,-153.1 L 100.395,-151.1 L 100.395,-151.1 L 100.395,-151.1 L 100.995,-151.1 L 100.995,-151.1 L 100.995,-151.1 L 100.995,-153.1 L 100.995,-153.1 L 100.995,-153.1 L 100.395,-153.1 L 100.395,-153.1 z" fill="#66cc99" fill-rule="evenodd" opacity="0.6" stroke="#555555" stroke-width="0.1"/>
			<path d="M 95.315,-153.1 L 95.315,-153.1 L 95.315,-151.1 L 95.315,-151.1 L 95.3150000002,-151.1 L 95.9149999998,-151.1 L 95.915,-151.1 L 95.915,-151.1 L 95.915,-153.1 L 95.915,-153.1 L 95.9149999998,-153.1 L 95.3150000002,-153.1 L 95.315,-153.1 z" fill="#66cc99" fill-rule="evenodd" opacity="0.6" stroke="#555555" stroke-width="0.1"/>
			<path d="M 99.125,-153.1 L 99.125,-153.1 L 99.125,-151.1 L 99.125,-151.1 L 99.1250000002,-151.1 L 99.7249999998,-151.1 L 99.725,-151.1 L 99.725,-151.1 L 99.725,-153.1 L 99.725,-153.1 L 99.7249999998,-153.1 L 99.1250000002,-153.1 L 99.125,-153.1 z" fill="#66cc99" fill-rule="evenodd" opacity="0.6" stroke="#555555" stroke-width="0.1"/>
			<path d="M 121.9,-151.2 L 121.9,-151.2 L 121.9,-149.2 L 121.9,-149.2 L 121.9,-149.2 L 125.9,-149.2 L 125.9,-149.2 L 125.9,-149.2 L 125.9,-151.2 L 125.9,-151.2 L 125.9,-151.2 L 121.9,-151.2 L 121.9,-151.2 z" fill="#66cc99" fill-rule="evenodd" opacity="0.6" stroke="#555555" stroke-width="0.1"/>
			<path d="M 79.8,-152.275 L 79.8,-152.275 L 79.8,-150.825 L 79.8,-150.825 L 79.8000000002,-150.825 L 80.2499999998,-150.825 L 80.25,-150.825 L 80.25,-150.825 L 80.25,-152.275 L 80.25,-152.275 L 80.2499999998,-152.275 L 79.8000000002,-152.275 L 79.8,-152.275 z" fill="#66cc99" fill-rule="evenodd" opacity="0.6" stroke="#555555" stroke-width="0.1"/>
			<path d="M 119.60071,-151.09916 L 119.60071,-151.09916 L 119.60071,-149.30084 L 119.60071,-149.30084 L 119.60071,-149.30084 L 121.19837,-149.30084 L 121.19837,-149.30084 L 121.19837,-149.30084 L 121.19837,-151.09916 L 121.19837,-151.09916 L 121.19837,-151.09916 L 119.60071,-151.09916 L 119.60071,-151.09916 z" fill="#66cc99" fill-rule="evenodd" opacity="0.6" stroke="#555555" stroke-width="0.1"/>
			<path d="M 114.60025,-151.09916 L 114.60025,-151.09916 L 114.60025,-149.30084 L 114.60025,-149.30084 L 114.60025,-149.30084 L 116.19791,-149.30084 L 116.19791,-149.30084 L 116.19791,-149.30084 L 116.19791,-151.09916 L 116.19791,-151.09916 L 116.19791,-151.09916 L 114.60025,-151.09916 L 114.60025,-151.09916 z" fill="#66cc99" fill-rule="evenodd" opacity="0.6" stroke="#555555" stroke-width="0.1"/>
			<path d="M 116.80163,-151.09916 L 116.80163,-151.09916 L 116.80163,-149.30084 L 116.80163,-149.30084 L 116.80163,-149.30084 L 118.39929,-149.30084 L 118.39929,-149.30084 L 118.39929,-149.30084 L 118.39929,-151.09916 L 118.39929,-151.09916 L 118.39929,-151.09916 L 116.80163,-151.09916 L 116.80163,-151.09916 z" fill="#66cc99" fill-rule="evenodd" opacity="0.6" stroke="#555555" stroke-width="0.1"/>
			<path d="M 85.65,-152.275 L 85.65,-152.275 L 85.65,-150.825 L 85.65,-150.825 L 85.6500000002,-150.825 L 86.0999999998,-150.825 L 86.1,-150.825 L 86.1,-150.825 L 86.1,-152.275 L 86.1,-152.275 L 86.0999999998,-152.275 L 85.6500000002,-152.275 L 85.65,-152.275 z" fill="#66cc99" fill-rule="evenodd" opacity="0.6" stroke="#555555" stroke-width="0.1"/>
			<path d="M 82.4,-152.275 L 82.4,-152.275 L 82.4,-150.825 L 82.4,-150.825 L 82.4000000002,-150.825 L 82.8499999998,-150.825 L 82.85,-150.825 L 82.85,-150.825 L 82.85,-152.275 L 82.85,-152.275 L 82.8499999998,-152.275 L 82.4000000002,-152.275 L 82.4,-152.275 z" fill="#66cc99" fill-rule="evenodd" opacity="0.6" stroke="#555555" stroke-width="0.1"/>
			<path d="M 81.1,-152.275 L 81.1,-152.275 L 81.1,-150.825 L 81.1,-150.825 L 81.1000000002,-150.825 L 81.5499999998,-150.825 L 81.55,-150.825 L 81.55,-150.825 L 81.55,-152.275 L 81.55,-152.275 L 81.5499999998,-152.275 L 81.1000000002,-152.275 L 81.1,-152.275 z" fill="#66cc99" fill-rule="evenodd" opacity="0.6" stroke="#555555" stroke-width="0.1"/>
			<path d="M 80.45,-152.275 L 80.45,-152.275 L 80.45,-150.825 L 80.45,-150.825 L 80.4500000002,-150.825 L 80.8999999998,-150.825 L 80.9,-150.825 L 80.9,-150.825 L 80.9,-152.275 L 80.9,-152.275 L 80.8999999998,-152.275 L 80.4500000002,-152.275 L 80.45,-152.275 z" fill="#66cc99" fill-rule="evenodd" opacity="0.6" stroke="#555555" stroke-width="0.1"/>
			<path d="M 83.7,-152.275 L 83.7,-152.275 L 83.7,-150.825 L 83.7,-150.825 L 83.7000000002,-150.825 L 84.1499999998,-150.825 L 84.15,-150.825 L 84.15,-150.825 L 84.15,-152.275 L 84.15,-152.275 L 84.1499999998,-152.275 L 83.7000000002,-152.275 L 83.7,-152.275 z" fill="#66cc99" fill-rule="evenodd" opacity="0.6" stroke="#555555" stroke-width="0.1"/>
			<path d="M 83.05,-152.275 L 83.05,-152.275 L 83.05,-150.825 L 83.05,-150.825 L 83.0500000002,-150.825 L 83.4999999998,-150.825 L 83.5,-150.825 L 83.5,-150.825 L 83.5,-152.275 L 83.5,-152.275 L 83.4999999998,-152.275 L 83.0500000002,-152.275 L 83.05,-152.275 z" fill="#66cc99" fill-rule="evenodd" opacity="0.6" stroke="#555555" stroke-width="0.1"/>
			<path d="M 84.35,-152.275 L 84.35,-152.275 L 84.35,-150.825 L 84.35,-150.825 L 84.3500000002,-150.825 L 84.7999999998,-150.825 L 84.8,-150.825 L 84.8,-150.825 L 84.8,-152.275 L 84.8,-152.275 L 84.7999999998,-152.275 L 84.3500000002,-152.275 L 84.35,-152.275 z" fill="#66cc99" fill-rule="evenodd" opacity="0.6" stroke="#555555" stroke-width="0.1"/>
			<path d="M 85.0,-152.275 L 85.0,-152.275 L 85.0,-150.825 L 85.0,-150.825 L 85.0000000002,-150.825 L 85.4499999998,-150.825 L 85.45,-150.825 L 85.45,-150.825 L 85.45,-152.275 L 85.45,-152.275 L 85.4499999998,-152.275 L 85.0000000002,-152.275 L 85.0,-152.275 z" fill="#66cc99" fill-rule="evenodd" opacity="0.6" stroke="#555555" stroke-width="0.1"/>
			<path d="M 111.80117,-151.09916 L 111.80117,-151.09916 L 111.80117,-149.30084 L 111.80117,-149.30084 L 111.80117,-149.30084 L 113.39883,-149.30084 L 113.39883,-149.30084 L 113.39883,-149.30084 L 113.39883,-151.09916 L 113.39883,-151.09916 L 113.39883,-151.09916 L 111.80117,-151.09916 L 111.80117,-151.09916 z" fill="#66cc99" fill-rule="evenodd" opacity="0.6" stroke="#555555" stroke-width="0.1"/>
			<path d="M 121.9,-141.2 L 121.9,-141.2 L 121.9,-139.2 L 121.9,-139.2 L 121.9,-139.2 L 125.9,-139.2 L 125.9,-139.2 L 125.9,-139.2 L 125.9,-141.2 L 125.9,-141.2 L 125.9,-141.2 L 121.9,-141.2 L 121.9,-141.2 z" fill="#66cc99" fill-rule="evenodd" opacity="0.6" stroke="#555555" stroke-width="0.1"/>
			<path d="M 119.60071,-141.09916 L 119.60071,-141.09916 L 119.60071,-139.30084 L 119.60071,-139.30084 L 119.60071,-139.30084 L 121.19837,-139.30084 L 121.19837,-139.30084 L 121.19837,-139.30084 L 121.19837,-141.09916 L 121.19837,-141.09916 L 121.19837,-141.09916 L 119.60071,-141.09916 L 119.60071,-141.09916 z" fill="#66cc99" fill-rule="evenodd" opacity="0.6" stroke="#555555" stroke-width="0.1"/>
			<path d="M 116.80163,-141.09916 L 116.80163,-141.09916 L 116.80163,-139.30084 L 116.80163,-139.30084 L 116.80163,-139.30084 L 118.39929,-139.30084 L 118.39929,-139.30084 L 118.39929,-139.30084 L 118.39929,-141.09916 L 118.39929,-141.09916 L 118.39929,-141.09916 L 116.80163,-141.09916 L 116.80163,-141.09916 z" fill="#66cc99" fill-rule="evenodd" opacity="0.6" stroke="#555555" stroke-width="0.1"/>
			<path d="M 69.31,-139.14 L 69.31,-139.14 L 69.31,-138.34 L 69.31,-138.34 L 69.3100000002,-138.34 L 70.5099999998,-138.34 L 70.51,-138.34 L 70.51,-138.34 L 70.51,-139.14 L 70.51,-139.14 L 70.5099999998,-139.14 L 69.3100000002,-139.14 L 69.31,-139.14 z" fill="#66cc99" fill-rule="evenodd" opacity="0.6" stroke="#555555" stroke-width="0.1"/>
			<path d="M 75.61,-139.14 L 75.61,-139.14 L 75.61,-138.34 L 75.61,-138.34 L 75.6100000002,-138.34 L 76.8099999998,-138.34 L 76.81,-138.34 L 76.81,-138.34 L 76.81,-139.14 L 76.81,-139.14 L 76.8099999998,-139.14 L 75.6100000002,-139.14 L 75.61,-139.14 z" fill="#66cc99" fill-rule="evenodd" opacity="0.6" stroke="#555555" stroke-width="0.1"/>
			<path d="M 81.22845,-137.91911 L 81.22845,-137.91911 L 81.22845,-136.92089 L 81.22845,-136.92089 L 81.2284500002,-136.92089 L 82.3282699998,-136.92089 L 82.32827,-136.92089 L 82.32827,-136.92089 L 82.32827,-137.91911 L 82.32827,-137.91911 L 82.3282699998,-137.91911 L 81.2284500002,-137.91911 L 81.22845,-137.91911 z" fill="#66cc99" fill-rule="evenodd" opacity="0.6" stroke="#555555" stroke-width="0.1"/>
			<path d="M 79.53173,-137.91911 L 79.53173,-137.91911 L 79.53173,-136.92089 L 79.53173,-136.92089 L 79.5317300002,-136.92089 L 80.6315499998,-136.92089 L 80.63155,-136.92089 L 80.63155,-136.92089 L 80.63155,-137.91911 L 80.63155,-137.91911 L 80.6315499998,-137.91911 L 79.5317300002,-137.91911 L 79.53173,-137.91911 z" fill="#66cc99" fill-rule="evenodd" opacity="0.6" stroke="#555555" stroke-width="0.1"/>
			<path d="M 87.48173,-137.91911 L 87.48173,-137.91911 L 87.48173,-136.92089 L 87.48173,-136.92089 L 87.4817300002,-136.92089 L 88.5815499998,-136.92089 L 88.58155,-136.92089 L 88.58155,-136.92089 L 88.58155,-137.91911 L 88.58155,-137.91911 L 88.5815499998,-137.91911 L 87.4817300002,-137.91911 L 87.48173,-137.91911 z" fill="#66cc99" fill-rule="evenodd" opacity="0.6" stroke="#555555" stroke-width="0.1"/>
			<path d="M 89.17845,-137.91911 L 89.17845,-137.91911 L 89.17845,-136.92089 L 89.17845,-136.92089 L 89.1784500002,-136.92089 L 90.2782699998,-136.92089 L 90.27827,-136.92089 L 90.27827,-136.92089 L 90.27827,-137.91911 L 90.27827,-137.91911 L 90.2782699998,-137.91911 L 89.1784500002,-137.91911 L 89.17845,-137.91911 z" fill="#66cc99" fill-rule="evenodd" opacity="0.6" stroke="#555555" stroke-width="0.1"/>
			<path d="M 87.069,-142.2852 L 87.069,-142.2852 L 87.069,-140.3548 L 87.069,-140.3548 L 87.0690000002,-140.3548 L 92.4029999998,-140.3548 L 92.403,-140.3548 L 92.403,-140.3548 L 92.403,-142.2852 L 92.403,-142.2852 L 92.4029999998,-142.2852 L 87.0690000002,-142.2852 L 87.069,-142.2852 z" fill="#66cc99" fill-rule="evenodd" opacity="0.6" stroke="#555555" stroke-width="0.1"/>
			<path d="M 77.417,-142.2852 L 77.417,-142.2852 L 77.417,-140.3548 L 77.417,-140.3548 L 77.4170000002,-140.3548 L 82.7509999998,-140.3548 L 82.751,-140.3548 L 82.751,-140.3548 L 82.751,-142.2852 L 82.751,-142.2852 L 82.7509999998,-142.2852 L 77.4170000002,-142.2852 L 77.417,-142.2852 z" fill="#66cc99" fill-rule="evenodd" opacity="0.6" stroke="#555555" stroke-width="0.1"/>
			<path d="M 63.15,-142.3 L 63.15,-142.3 L 63.15,-140.3 L 63.15,-140.3 L 63.1500000002,-140.3 L 67.1499999998,-140.3 L 67.15,-140.3 L 67.15,-140.3 L 67.15,-142.3 L 67.15,-142.3 L 67.1499999998,-142.3 L 63.1500000002,-142.3 L 63.15,-142.3 z" fill="#66cc99" fill-rule="evenodd" opacity="0.6" stroke="#555555" stroke-width="0.1"/>
			<path d="M 75.61,-141.68 L 75.61,-141.68 L 75.61,-140.88 L 75.61,-140.88 L 75.6100000002,-140.88 L 76.8099999998,-140.88 L 76.81,-140.88 L 76.81,-140.88 L 76.81,-141.68 L 76.81,-141.68 L 76.8099999998,-141.68 L 75.6100000002,-141.68 L 75.61,-141.68 z" fill="#66cc99" fill-rule="evenodd" opacity="0.6" stroke="#555555" stroke-width="0.1"/>
			<path d="M 69.31,-141.68 L 69.31,-141.68 L 69.31,-140.88 L 69.31,-140.88 L 69.3100000002,-140.88 L 70.5099999998,-140.88 L 70.51,-140.88 L 70.51,-140.88 L 70.51,-141.68 L 70.51,-141.68 L 70.5099999998,-141.68 L 69.3100000002,-141.68 L 69.31,-141.68 z" fill="#66cc99" fill-rule="evenodd" opacity="0.6" stroke="#555555" stroke-width="0.1"/>
			<path d="M 67.75089,-141.39827 L 67.75089,-141.39827 L 67.75089,-140.29845 L 67.75089,-140.29845 L 67.7508900002,-140.29845 L 68.7491099998,-140.29845 L 68.74911,-140.29845 L 68.74911,-140.29845 L 68.74911,-141.39827 L 68.74911,-141.39827 L 68.7491099998,-141.39827 L 67.7508900002,-141.39827 L 67.75089,-141.39827 z" fill="#66cc99" fill-rule="evenodd" opacity="0.6" stroke="#555555" stroke-width="0.1"/>
			<path d="M 108.40173,-140.69911 L 108.40173,-140.69911 L 108.40173,-139.70089 L 108.40173,-139.70089 L 108.40173,-139.70089 L 109.50155,-139.70089 L 109.50155,-139.70089 L 109.50155,-139.70089 L 109.50155,-140.69911 L 109.50155,-140.69911 L 109.50155,-140.69911 L 108.40173,-140.69911 L 108.40173,-140.69911 z" fill="#66cc99" fill-rule="evenodd" opacity="0.6" stroke="#555555" stroke-width="0.1"/>
			<path d="M 114.60025,-141.09916 L 114.60025,-141.09916 L 114.60025,-139.30084 L 114.60025,-139.30084 L 114.60025,-139.30084 L 116.19791,-139.30084 L 116.19791,-139.30084 L 116.19791,-139.30084 L 116.19791,-141.09916 L 116.19791,-141.09916 L 116.19791,-141.09916 L 114.60025,-141.09916 L 114.60025,-141.09916 z" fill="#66cc99" fill-rule="evenodd" opacity="0.6" stroke="#555555" stroke-width="0.1"/>
			<path d="M 110.09845,-140.69911 L 110.09845,-140.69911 L 110.09845,-139.70089 L 110.09845,-139.70089 L 110.09845,-139.70089 L 111.19827,-139.70089 L 111.19827,-139.70089 L 111.19827,-139.70089 L 111.19827,-140.69911 L 111.19827,-140.69911 L 111.19827,-140.69911 L 110.09845,-140.69911 L 110.09845,-140.69911 z" fill="#66cc99" fill-rule="evenodd" opacity="0.6" stroke="#555555" stroke-width="0.1"/>
			<path d="M 111.80117,-141.09916 L 111.80117,-141.09916 L 111.80117,-139.30084 L 111.80117,-139.30084 L 111.80117,-139.30084 L 113.39883,-139.30084 L 113.39883,-139.30084 L 113.39883,-139.30084 L 113.39883,-141.09916 L 113.39883,-141.09916 L 113.39883,-141.09916 L 111.80117,-141.09916 L 111.80117,-141.09916 z" fill="#66cc99" fill-rule="evenodd" opacity="0.6" stroke="#555555" stroke-width="0.1"/>
			<path d="M 67.75089,-139.70155 L 67.75089,-139.70155 L 67.75089,-138.60173 L 67.75089,-138.60173 L 67.7508900002,-138.60173 L 68.7491099998,-138.60173 L 68.74911,-138.60173 L 68.74911,-138.60173 L 68.74911,-139.70155 L 68.74911,-139.70155 L 68.7491099998,-139.70155 L 67.7508900002,-139.70155 L 67.75089,-139.70155 z" fill="#66cc99" fill-rule="evenodd" opacity="0.6" stroke="#555555" stroke-width="0.1"/>
			<path d="M 63.15,-139.75 L 63.15,-139.75 L 63.15,-137.75 L 63.15,-137.75 L 63.1500000002,-137.75 L 67.1499999998,-137.75 L 67.15,-137.75 L 67.15,-137.75 L 67.15,-139.75 L 67.15,-139.75 L 67.1499999998,-139.75 L 63.1500000002,-139.75 L 63.15,-139.75 z" fill="#66cc99" fill-rule="evenodd" opacity="0.6" stroke="#555555" stroke-width="0.1"/>
			<path d="M 69.31,-140.41 L 69.31,-140.41 L 69.31,-139.61 L 69.31,-139.61 L 69.3100000002,-139.61 L 70.5099999998,-139.61 L 70.51,-139.61 L 70.51,-139.61 L 70.51,-140.41 L 70.51,-140.41 L 70.5099999998,-140.41 L 69.3100000002,-140.41 L 69.31,-140.41 z" fill="#66cc99" fill-rule="evenodd" opacity="0.6" stroke="#555555" stroke-width="0.1"/>
			<path d="M 93.2,-139.33 L 93.2,-139.33 L 93.2,-135.33 L 93.2,-135.33 L 93.2000000002,-135.33 L 95.1999999998,-135.33 L 95.2,-135.33 L 95.2,-135.33 L 95.2,-139.33 L 95.2,-139.33 L 95.1999999998,-139.33 L 93.2000000002,-139.33 L 93.2,-139.33 z" fill="#66cc99" fill-rule="evenodd" opacity="0.6" stroke="#555555" stroke-width="0.1"/>
			<path d="M 96.0,-139.2 L 96.0,-139.2 L 96.0,-135.2 L 96.0,-135.2 L 96.0000000002,-135.2 L 97.9999999998,-135.2 L 98.0,-135.2 L 98.0,-135.2 L 98.0,-139.2 L 98.0,-139.2 L 97.9999999998,-139.2 L 96.0000000002,-139.2 L 96.0,-139.2 z" fill="#66cc99" fill-rule="evenodd" opacity="0.6" stroke="#555555" stroke-width="0.1"/>
			<path d="M 98.8,-139.2 L 98.8,-139.2 L 98.8,-135.2 L 98.8,-135.2 L 98.8000000002,-135.2 L 100.8,-135.2 L 100.8,-135.2 L 100.8,-135.2 L 100.8,-139.2 L 100.8,-139.2 L 100.8,-139.2 L 98.8000000002,-139.2 L 98.8,-139.2 z" fill="#66cc99" fill-rule="evenodd" opacity="0.6" stroke="#555555" stroke-width="0.1"/>
			<path d="M 75.90173,-146.19911 L 75.90173,-146.19911 L 75.90173,-145.20089 L 75.90173,-145.20089 L 75.9017300002,-145.20089 L 77.0015499998,-145.20089 L 77.00155,-145.20089 L 77.00155,-145.20089 L 77.00155,-146.19911 L 77.00155,-146.19911 L 77.0015499998,-146.19911 L 75.9017300002,-146.19911 L 75.90173,-146.19911 z" fill="#66cc99" fill-rule="evenodd" opacity="0.6" stroke="#555555" stroke-width="0.1"/>
			<path d="M 77.59845,-146.19911 L 77.59845,-146.19911 L 77.59845,-145.20089 L 77.59845,-145.20089 L 77.5984500002,-145.20089 L 78.6982699998,-145.20089 L 78.69827,-145.20089 L 78.69827,-145.20089 L 78.69827,-146.19911 L 78.69827,-146.19911 L 78.6982699998,-146.19911 L 77.5984500002,-146.19911 L 77.59845,-146.19911 z" fill="#66cc99" fill-rule="evenodd" opacity="0.6" stroke="#555555" stroke-width="0.1"/>
			<path d="M 80.45,-146.375 L 80.45,-146.375 L 80.45,-144.925 L 80.45,-144.925 L 80.4500000002,-144.925 L 80.8999999998,-144.925 L 80.9,-144.925 L 80.9,-144.925 L 80.9,-146.375 L 80.9,-146.375 L 80.8999999998,-146.375 L 80.4500000002,-146.375 L 80.45,-146.375 z" fill="#66cc99" fill-rule="evenodd" opacity="0.6" stroke="#555555" stroke-width="0.1"/>
			<path d="M 79.8,-146.375 L 79.8,-146.375 L 79.8,-144.925 L 79.8,-144.925 L 79.8000000002,-144.925 L 80.2499999998,-144.925 L 80.25,-144.925 L 80.25,-144.925 L 80.25,-146.375 L 80.25,-146.375 L 80.2499999998,-146.375 L 79.8000000002,-146.375 L 79.8,-146.375 z" fill="#66cc99" fill-rule="evenodd" opacity="0.6" stroke="#555555" stroke-width="0.1"/>
			<path d="M 114.60025,-146.09916 L 114.60025,-146.09916 L 114.60025,-144.30084 L 114.60025,-144.30084 L 114.60025,-144.30084 L 116.19791,-144.30084 L 116.19791,-144.30084 L 116.19791,-144.30084 L 116.19791,-146.09916 L 116.19791,-146.09916 L 116.19791,-146.09916 L 114.60025,-146.09916 L 114.60025,-146.09916 z" fill="#66cc99" fill-rule="evenodd" opacity="0.6" stroke="#555555" stroke-width="0.1"/>
			<path d="M 116.80163,-146.09916 L 116.80163,-146.09916 L 116.80163,-144.30084 L 116.80163,-144.30084 L 116.80163,-144.30084 L 118.39929,-144.30084 L 118.39929,-144.30084 L 118.39929,-144.30084 L 118.39929,-146.09916 L 118.39929,-146.09916 L 118.39929,-146.09916 L 116.80163,-146.09916 L 116.80163,-146.09916 z" fill="#66cc99" fill-rule="evenodd" opacity="0.6" stroke="#555555" stroke-width="0.1"/>
			<path d="M 119.60071,-146.09916 L 119.60071,-146.09916 L 119.60071,-144.30084 L 119.60071,-144.30084 L 119.60071,-144.30084 L 121.19837,-144.30084 L 121.19837,-144.30084 L 121.19837,-144.30084 L 121.19837,-146.09916 L 121.19837,-146.09916 L 121.19837,-146.09916 L 119.60071,-146.09916 L 119.60071,-146.09916 z" fill="#66cc99" fill-rule="evenodd" opacity="0.6" stroke="#555555" stroke-width="0.1"/>
			<path d="M 83.05,-146.375 L 83.05,-146.375 L 83.05,-144.925 L 83.05,-144.925 L 83.0500000002,-144.925 L 83.4999999998,-144.925 L 83.5,-144.925 L 83.5,-144.925 L 83.5,-146.375 L 83.5,-146.375 L 83.4999999998,-146.375 L 83.0500000002,-146.375 L 83.05,-146.375 z" fill="#66cc99" fill-rule="evenodd" opacity="0.6" stroke="#555555" stroke-width="0.1"/>
			<path d="M 83.7,-146.375 L 83.7,-146.375 L 83.7,-144.925 L 83.7,-144.925 L 83.7000000002,-144.925 L 84.1499999998,-144.925 L 84.15,-144.925 L 84.15,-144.925 L 84.15,-146.375 L 84.15,-146.375 L 84.1499999998,-146.375 L 83.7000000002,-146.375 L 83.7,-146.375 z" fill="#66cc99" fill-rule="evenodd" opacity="0.6" stroke="#555555" stroke-width="0.1"/>
			<path d="M 82.4,-146.375 L 82.4,-146.375 L 82.4,-144.925 L 82.4,-144.925 L 82.4000000002,-144.925 L 82.8499999998,-144.925 L 82.85,-144.925 L 82.85,-144.925 L 82.85,-146.375 L 82.85,-146.375 L 82.8499999998,-146.375 L 82.4000000002,-146.375 L 82.4,-146.375 z" fill="#66cc99" fill-rule="evenodd" opacity="0.6" stroke="#555555" stroke-width="0.1"/>
			<path d="M 81.1,-146.375 L 81.1,-146.375 L 81.1,-144.925 L 81.1,-144.925 L 81.1000000002,-144.925 L 81.5499999998,-144.925 L 81.55,-144.925 L 81.55,-144.925 L 81.55,-146.375 L 81.55,-146.375 L 81.5499999998,-146.375 L 81.1000000002,-146.375 L 81.1,-146.375 z" fill="#66cc99" fill-rule="evenodd" opacity="0.6" stroke="#555555" stroke-width="0.1"/>
			<path d="M 85.65,-146.375 L 85.65,-146.375 L 85.65,-144.925 L 85.65,-144.925 L 85.6500000002,-144.925 L 86.0999999998,-144.925 L 86.1,-144.925 L 86.1,-144.925 L 86.1,-146.375 L 86.1,-146.375 L 86.0999999998,-146.375 L 85.6500000002,-146.375 L 85.65,-146.375 z" fill="#66cc99" fill-rule="evenodd" opacity="0.6" stroke="#555555" stroke-width="0.1"/>
			<path d="M 81.75,-146.375 L 81.75,-146.375 L 81.75,-144.925 L 81.75,-144.925 L 81.7500000002,-144.925 L 82.1999999998,-144.925 L 82.2,-144.925 L 82.2,-144.925 L 82.2,-146.375 L 82.2,-146.375 L 82.1999999998,-146.375 L 81.7500000002,-146.375 L 81.75,-146.375 z" fill="#66cc99" fill-rule="evenodd" opacity="0.6" stroke="#555555" stroke-width="0.1"/>
			<path d="M 84.35,-146.375 L 84.35,-146.375 L 84.35,-144.925 L 84.35,-144.925 L 84.3500000002,-144.925 L 84.7999999998,-144.925 L 84.8,-144.925 L 84.8,-144.925 L 84.8,-146.375 L 84.8,-146.375 L 84.7999999998,-146.375 L 84.3500000002,-146.375 L 84.35,-146.375 z" fill="#66cc99" fill-rule="evenodd" opacity="0.6" stroke="#555555" stroke-width="0.1"/>
			<path d="M 85.0,-146.375 L 85.0,-146.375 L 85.0,-144.925 L 85.0,-144.925 L 85.0000000002,-144.925 L 85.4499999998,-144.925 L 85.45,-144.925 L 85.45,-144.925 L 85.45,-146.375 L 85.45,-146.375 L 85.4499999998,-146.375 L 85.0000000002,-146.375 L 85.0,-146.375 z" fill="#66cc99" fill-rule="evenodd" opacity="0.6" stroke="#555555" stroke-width="0.1"/>
			<path d="M 121.9,-146.2 L 121.9,-146.2 L 121.9,-144.2 L 121.9,-144.2 L 121.9,-144.2 L 125.9,-144.2 L 125.9,-144.2 L 125.9,-144.2 L 125.9,-146.2 L 125.9,-146.2 L 125.9,-146.2 L 121.9,-146.2 L 121.9,-146.2 z" fill="#66cc99" fill-rule="evenodd" opacity="0.6" stroke="#555555" stroke-width="0.1"/>
			<path d="M 111.80117,-146.09916 L 111.80117,-146.09916 L 111.80117,-144.30084 L 111.80117,-144.30084 L 111.80117,-144.30084 L 113.39883,-144.30084 L 113.39883,-144.30084 L 113.39883,-144.30084 L 113.39883,-146.09916 L 113.39883,-146.09916 L 113.39883,-146.09916 L 111.80117,-146.09916 L 111.80117,-146.09916 z" fill="#66cc99" fill-rule="evenodd" opacity="0.6" stroke="#555555" stroke-width="0.1"/>
			<path d="M 108.40173,-145.69911 L 108.40173,-145.69911 L 108.40173,-144.70089 L 108.40173,-144.70089 L 108.40173,-144.70089 L 109.50155,-144.70089 L 109.50155,-144.70089 L 109.50155,-144.70089 L 109.50155,-145.69911 L 109.50155,-145.69911 L 109.50155,-145.69911 L 108.40173,-145.69911 L 108.40173,-145.69911 z" fill="#66cc99" fill-rule="evenodd" opacity="0.6" stroke="#555555" stroke-width="0.1"/>
			<path d="M 110.09845,-145.69911 L 110.09845,-145.69911 L 110.09845,-144.70089 L 110.09845,-144.70089 L 110.09845,-144.70089 L 111.19827,-144.70089 L 111.19827,-144.70089 L 111.19827,-144.70089 L 111.19827,-145.69911 L 111.19827,-145.69911 L 111.19827,-145.69911 L 110.09845,-145.69911 L 110.09845,-145.69911 z" fill="#66cc99" fill-rule="evenodd" opacity="0.6" stroke="#555555" stroke-width="0.1"/>
			<path d="M 63.15,-144.85 L 63.15,-144.85 L 63.15,-142.85 L 63.15,-142.85 L 63.1500000002,-142.85 L 67.1499999998,-142.85 L 67.15,-142.85 L 67.15,-142.85 L 67.15,-144.85 L 67.15,-144.85 L 67.1499999998,-144.85 L 63.1500000002,-144.85 L 63.15,-144.85 z" fill="#66cc99" fill-rule="evenodd" opacity="0.6" stroke="#555555" stroke-width="0.1"/>
			<path d="M 79.30089,-159.10155 L 79.30089,-159.10155 L 79.30089,-158.00173 L 79.30089,-158.00173 L 79.3008900002,-158.00173 L 80.2991099998,-158.00173 L 80.29911,-158.00173 L 80.29911,-158.00173 L 80.29911,-159.10155 L 80.29911,-159.10155 L 80.2991099998,-159.10155 L 79.3008900002,-159.10155 L 79.30089,-159.10155 z" fill="#66cc99" fill-rule="evenodd" opacity="0.6" stroke="#555555" stroke-width="0.1"/>
			<path d="M 85.99845,-158.99911 L 85.99845,-158.99911 L 85.99845,-158.00089 L 85.99845,-158.00089 L 85.9984500002,-158.00089 L 87.0982699998,-158.00089 L 87.09827,-158.00089 L 87.09827,-158.00089 L 87.09827,-158.99911 L 87.09827,-158.99911 L 87.0982699998,-158.99911 L 85.9984500002,-158.99911 L 85.99845,-158.99911 z" fill="#66cc99" fill-rule="evenodd" opacity="0.6" stroke="#555555" stroke-width="0.1"/>
			<path d="M 84.30173,-158.99911 L 84.30173,-158.99911 L 84.30173,-158.00089 L 84.30173,-158.00089 L 84.3017300002,-158.00089 L 85.4015499998,-158.00089 L 85.40155,-158.00089 L 85.40155,-158.00089 L 85.40155,-158.99911 L 85.40155,-158.99911 L 85.4015499998,-158.99911 L 84.3017300002,-158.99911 L 84.30173,-158.99911 z" fill="#66cc99" fill-rule="evenodd" opacity="0.6" stroke="#555555" stroke-width="0.1"/>
			<path d="M 71.795,-159.975 L 71.795,-159.975 L 71.795,-158.425 L 71.795,-158.425 L 71.7950000002,-158.425 L 72.3949999998,-158.425 L 72.395,-158.425 L 72.395,-158.425 L 72.395,-159.975 L 72.395,-159.975 L 72.3949999998,-159.975 L 71.7950000002,-159.975 L 71.795,-159.975 z" fill="#66cc99" fill-rule="evenodd" opacity="0.6" stroke="#555555" stroke-width="0.1"/>
			<path d="M 73.065,-159.975 L 73.065,-159.975 L 73.065,-158.425 L 73.065,-158.425 L 73.0650000002,-158.425 L 73.6649999998,-158.425 L 73.665,-158.425 L 73.665,-158.425 L 73.665,-159.975 L 73.665,-159.975 L 73.6649999998,-159.975 L 73.0650000002,-159.975 L 73.065,-159.975 z" fill="#66cc99" fill-rule="evenodd" opacity="0.6" stroke="#555555" stroke-width="0.1"/>
			<path d="M 75.605,-159.975 L 75.605,-159.975 L 75.605,-158.425 L 75.605,-158.425 L 75.6050000002,-158.425 L 76.2049999998,-158.425 L 76.205,-158.425 L 76.205,-158.425 L 76.205,-159.975 L 76.205,-159.975 L 76.2049999998,-159.975 L 75.6050000002,-159.975 L 75.605,-159.975 z" fill="#66cc99" fill-rule="evenodd" opacity="0.6" stroke="#555555" stroke-width="0.1"/>
			<path d="M 74.335,-159.975 L 74.335,-159.975 L 74.335,-158.425 L 74.335,-158.425 L 74.3350000002,-158.425 L 74.9349999998,-158.425 L 74.935,-158.425 L 74.935,-158.425 L 74.935,-159.975 L 74.935,-159.975 L 74.9349999998,-159.975 L 74.3350000002,-159.975 L 74.335,-159.975 z" fill="#66cc99" fill-rule="evenodd" opacity="0.6" stroke="#555555" stroke-width="0.1"/>
			<path d="M 82.59845,-158.99911 L 82.59845,-158.99911 L 82.59845,-158.00089 L 82.59845,-158.00089 L 82.5984500002,-158.00089 L 83.6982699998,-158.00089 L 83.69827,-158.00089 L 83.69827,-158.00089 L 83.69827,-158.99911 L 83.69827,-158.99911 L 83.6982699998,-158.99911 L 82.5984500002,-158.99911 L 82.59845,-158.99911 z" fill="#66cc99" fill-rule="evenodd" opacity="0.6" stroke="#555555" stroke-width="0.1"/>
			<path d="M 80.90173,-158.99911 L 80.90173,-158.99911 L 80.90173,-158.00089 L 80.90173,-158.00089 L 80.9017300002,-158.00089 L 82.0015499998,-158.00089 L 82.00155,-158.00089 L 82.00155,-158.00089 L 82.00155,-158.99911 L 82.00155,-158.99911 L 82.0015499998,-158.99911 L 80.9017300002,-158.99911 L 80.90173,-158.99911 z" fill="#66cc99" fill-rule="evenodd" opacity="0.6" stroke="#555555" stroke-width="0.1"/>
		</g>
	</g>
	 
</svg>
