M48
;DRILL file {KiCad 5.0.0} date Wed Jan  2 17:06:35 2019
;FORMAT={-:-/ absolute / metric / decimal}
FMAT,2
METRIC,TZ
T1C0.810
%
G90
G05
M71
T1
X60.45Y-136.3
X60.45Y-146.3
X60.7Y-166.05
X69.7Y-169.05
X70.2Y-164.6
X71.4Y-155.2
X73.45Y-148.65
X74.2Y-146.
X74.4Y-152.2
X74.8Y-170.
X78.2Y-150.25
X79.2Y-162.6
X79.4Y-156.6
X82.2Y-135.55
X83.45Y-170.3
X88.4Y-158.4
X100.6Y-154.2
X107.2Y-140.3
X107.2Y-145.3
X107.2Y-150.3
X107.2Y-155.3
X107.2Y-160.3
X107.2Y-165.3
X107.2Y-175.3
X107.297Y-170.203
X110.398Y-143.5
X110.398Y-148.501
X110.398Y-153.501
X110.398Y-158.501
X110.398Y-163.3
X110.398Y-173.501
X110.4Y-138.5
X110.538Y-168.501
T0
M30
