M48
;DRILL file {KiCad 5.0.0} date Tue Dec 18 15:29:14 2018
;FORMAT={-:-/ absolute / metric / decimal}
FMAT,2
METRIC,TZ
T1C0.700
%
G90
G05
M71
T1
X3.25Y41.9
X3.25Y31.9
X3.5Y12.15
X12.5Y9.15
X13.Y13.6
X14.2Y23.
X16.25Y29.55
X17.Y32.2
X17.2Y26.
X17.6Y8.2
X21.Y27.95
X22.Y15.6
X22.2Y21.6
X25.Y42.65
X26.25Y7.9
X31.2Y19.8
X43.4Y24.
X50.Y37.9
X50.Y32.9
X50.Y27.9
X50.Y22.9
X50.Y17.9
X50.Y12.9
X50.Y2.9
X50.097Y7.997
X53.198Y34.7
X53.198Y29.699
X53.198Y24.699
X53.198Y19.699
X53.198Y14.9
X53.198Y4.699
X53.2Y39.7
X53.338Y9.699
T0
M30
