G04 #@! TF.GenerationSoftware,KiCad,Pcbnew,5.0.0*
G04 #@! TF.CreationDate,2019-01-02T17:09:17-05:00*
G04 #@! TF.ProjectId,probe,70726F62652E6B696361645F70636200,rev?*
G04 #@! TF.SameCoordinates,Original*
G04 #@! TF.FileFunction,Soldermask,Bot*
G04 #@! TF.FilePolarity,Negative*
%FSLAX46Y46*%
G04 Gerber Fmt 4.6, Leading zero omitted, Abs format (unit mm)*
G04 Created by KiCad (PCBNEW 5.0.0) date Wed Jan  2 17:09:17 2019*
%MOMM*%
%LPD*%
G01*
G04 APERTURE LIST*
%ADD10R,1.800860X2.001520*%
%ADD11R,4.000000X2.000000*%
%ADD12R,1.303020X1.201420*%
G04 APERTURE END LIST*
D10*
G04 #@! TO.C,R50*
X117800460Y-134550000D03*
X120599540Y-134550000D03*
G04 #@! TD*
D11*
G04 #@! TO.C,J25*
X123950000Y-134550000D03*
G04 #@! TD*
G04 #@! TO.C,J16*
X123896569Y-145203433D03*
G04 #@! TD*
G04 #@! TO.C,J15*
X123896569Y-150203433D03*
G04 #@! TD*
G04 #@! TO.C,J14*
X123896569Y-155203433D03*
G04 #@! TD*
G04 #@! TO.C,J13*
X123896569Y-160203433D03*
G04 #@! TD*
G04 #@! TO.C,J12*
X123896569Y-165203433D03*
G04 #@! TD*
G04 #@! TO.C,J11*
X123896569Y-170203433D03*
G04 #@! TD*
G04 #@! TO.C,J10*
X123896569Y-175203433D03*
G04 #@! TD*
G04 #@! TO.C,J17*
X123896569Y-140203433D03*
G04 #@! TD*
D10*
G04 #@! TO.C,R42*
X120396109Y-175203433D03*
X117597029Y-175203433D03*
G04 #@! TD*
G04 #@! TO.C,R44*
X120396109Y-165203433D03*
X117597029Y-165203433D03*
G04 #@! TD*
G04 #@! TO.C,R43*
X117597029Y-170203433D03*
X120396109Y-170203433D03*
G04 #@! TD*
G04 #@! TO.C,R45*
X120396109Y-160203433D03*
X117597029Y-160203433D03*
G04 #@! TD*
G04 #@! TO.C,R49*
X117597029Y-140203433D03*
X120396109Y-140203433D03*
G04 #@! TD*
G04 #@! TO.C,R48*
X120396109Y-145203433D03*
X117597029Y-145203433D03*
G04 #@! TD*
G04 #@! TO.C,R47*
X117597029Y-150203433D03*
X120396109Y-150203433D03*
G04 #@! TD*
G04 #@! TO.C,R46*
X120396109Y-155203433D03*
X117597029Y-155203433D03*
G04 #@! TD*
D12*
G04 #@! TO.C,R33*
X108948209Y-140203433D03*
X110644929Y-140203433D03*
G04 #@! TD*
G04 #@! TO.C,R31*
X110644929Y-145203433D03*
X108948209Y-145203433D03*
G04 #@! TD*
G04 #@! TO.C,R29*
X108948209Y-150203433D03*
X110644929Y-150203433D03*
G04 #@! TD*
G04 #@! TO.C,R27*
X110644929Y-155203433D03*
X108948209Y-155203433D03*
G04 #@! TD*
G04 #@! TO.C,R19*
X108948209Y-175203433D03*
X110644929Y-175203433D03*
G04 #@! TD*
G04 #@! TO.C,R21*
X110644929Y-170203433D03*
X108948209Y-170203433D03*
G04 #@! TD*
G04 #@! TO.C,R23*
X110644929Y-165203433D03*
X108948209Y-165203433D03*
G04 #@! TD*
G04 #@! TO.C,R25*
X110644929Y-160203433D03*
X108948209Y-160203433D03*
G04 #@! TD*
D10*
G04 #@! TO.C,R20*
X112596569Y-170203433D03*
X115395649Y-170203433D03*
G04 #@! TD*
G04 #@! TO.C,R32*
X112596569Y-140203433D03*
X115395649Y-140203433D03*
G04 #@! TD*
G04 #@! TO.C,R30*
X115395649Y-145203433D03*
X112596569Y-145203433D03*
G04 #@! TD*
G04 #@! TO.C,R28*
X112596569Y-150203433D03*
X115395649Y-150203433D03*
G04 #@! TD*
G04 #@! TO.C,R26*
X115395649Y-155203433D03*
X112596569Y-155203433D03*
G04 #@! TD*
G04 #@! TO.C,R24*
X112596569Y-160203433D03*
X115395649Y-160203433D03*
G04 #@! TD*
G04 #@! TO.C,R22*
X115395649Y-165203433D03*
X112596569Y-165203433D03*
G04 #@! TD*
G04 #@! TO.C,R18*
X112596569Y-175203433D03*
X115395649Y-175203433D03*
G04 #@! TD*
M02*
